<svg xmlns="http://www.w3.org/2000/svg" width="67.088" height="74.967" viewBox="0 0 67.088 74.967">
  <g id="accounts" transform="translate(-26.908)">
    <path id="Path_2221" data-name="Path 2221" d="M175.194,3.358V64.846a3.358,3.358,0,0,1-3.358,3.358H125.393a3.358,3.358,0,0,1-3.358-3.358V3.358A3.358,3.358,0,0,1,125.393,0h46.444A3.358,3.358,0,0,1,175.194,3.358Z" transform="translate(-81.198)" fill="#9eafc6"/>
    <path id="Path_2222" data-name="Path 2222" d="M139.929,184.915a3.5,3.5,0,0,1-.106.855c3.573,1.472,4.37,3.346,4.37,4.721v6.317c0,1.374-.8,3.248-4.37,4.72a3.5,3.5,0,0,1,.106.855v4.457H125.393a3.358,3.358,0,0,1-3.358-3.358V162.725a45.74,45.74,0,0,1,5.343-.306,37.4,37.4,0,0,1,11.173,1.525c4.664,1.525,5.643,3.662,5.643,5.189v6.317c0,1.361-.781,3.21-4.264,4.674v4.791Z" transform="translate(-81.198 -138.638)" fill="#8590a8"/>
    <path id="Path_2223" data-name="Path 2223" d="M206.651,56.308v9.308a.9.9,0,0,1-.905.905H167.424a.9.9,0,0,1-.905-.905V56.308a.9.9,0,0,1,.905-.905h38.322A.905.905,0,0,1,206.651,56.308Z" transform="translate(-119.169 -47.291)" fill="#57d3d0"/>
    <g id="Group_264" data-name="Group 264" transform="translate(56.458 8.112)">
      <path id="Path_2224" data-name="Path 2224" d="M246.473,55.4,235.356,66.521h-6.635L239.839,55.4Z" transform="translate(-228.721 -55.403)" fill="#8ce5e1"/>
      <path id="Path_2225" data-name="Path 2225" d="M313.591,55.4,302.472,66.521h-6.635L306.955,55.4Z" transform="translate(-286.01 -55.403)" fill="#8ce5e1"/>
    </g>
    <g id="Group_265" data-name="Group 265" transform="translate(47.584 26.484)">
      <path id="Path_2226" data-name="Path 2226" d="M173.08,185.2h-2.8a2.161,2.161,0,0,1-2.161-2.161h0a2.161,2.161,0,0,1,2.161-2.161h2.8a2.161,2.161,0,0,1,2.161,2.161h0A2.161,2.161,0,0,1,173.08,185.2Z" transform="translate(-168.118 -180.876)" fill="#ed6294"/>
      <path id="Path_2227" data-name="Path 2227" d="M249.319,183.039a2.16,2.16,0,0,1-2.162,2.161h-2.8a2.161,2.161,0,0,1-.425-4.279,2.216,2.216,0,0,1,.425-.042h2.8A2.161,2.161,0,0,1,249.319,183.039Z" transform="translate(-231.349 -180.879)" fill="#ed6294"/>
    </g>
    <path id="Path_2228" data-name="Path 2228" d="M246.76,185.137v.311h-2.4a2.161,2.161,0,0,1-.425-4.279C246.2,182.488,246.76,183.986,246.76,185.137Z" transform="translate(-183.765 -154.641)" fill="#dc4173"/>
    <g id="Group_266" data-name="Group 266" transform="translate(69.278 26.484)">
      <path id="Path_2229" data-name="Path 2229" d="M321.241,185.2h-2.8a2.161,2.161,0,0,1-2.161-2.161h0a2.161,2.161,0,0,1,2.161-2.161h2.8a2.161,2.161,0,0,1,2.161,2.161h0A2.161,2.161,0,0,1,321.241,185.2Z" transform="translate(-316.279 -180.876)" fill="#ed6294"/>
      <path id="Path_2230" data-name="Path 2230" d="M395.321,185.2h-2.8a2.161,2.161,0,0,1-2.161-2.161h0a2.161,2.161,0,0,1,2.161-2.161h2.8a2.161,2.161,0,0,1,2.161,2.161h0A2.161,2.161,0,0,1,395.321,185.2Z" transform="translate(-379.512 -180.876)" fill="#ed6294"/>
    </g>
    <g id="Group_267" data-name="Group 267" transform="translate(47.584 37.484)">
      <path id="Path_2231" data-name="Path 2231" d="M173.08,260.326h-2.8a2.161,2.161,0,0,1-2.161-2.161h0A2.161,2.161,0,0,1,170.279,256h2.8a2.161,2.161,0,0,1,2.161,2.161h0A2.161,2.161,0,0,1,173.08,260.326Z" transform="translate(-168.118 -256.004)" fill="#697491"/>
      <path id="Path_2232" data-name="Path 2232" d="M249.32,258.162a2.163,2.163,0,0,1-2.162,2.162h-2.8a2.162,2.162,0,0,1,0-4.323h2.8A2.162,2.162,0,0,1,249.32,258.162Z" transform="translate(-231.349 -256.001)" fill="#697491"/>
    </g>
    <path id="Path_2233" data-name="Path 2233" d="M242.2,258.162A2.163,2.163,0,0,1,244.358,256H246.7c-.232,1.192-1.155,2.607-3.744,3.8A2.154,2.154,0,0,1,242.2,258.162Z" transform="translate(-183.765 -218.516)" fill="#576384"/>
    <g id="Group_268" data-name="Group 268" transform="translate(47.584 37.484)">
      <path id="Path_2234" data-name="Path 2234" d="M321.241,260.326h-2.8a2.161,2.161,0,0,1-2.161-2.161h0A2.161,2.161,0,0,1,318.44,256h2.8a2.161,2.161,0,0,1,2.161,2.161h0A2.161,2.161,0,0,1,321.241,260.326Z" transform="translate(-294.585 -256.004)" fill="#697491"/>
      <path id="Path_2235" data-name="Path 2235" d="M395.321,260.326h-2.8a2.161,2.161,0,0,1-2.161-2.161h0A2.161,2.161,0,0,1,392.52,256h2.8a2.161,2.161,0,0,1,2.161,2.161h0A2.161,2.161,0,0,1,395.321,260.326Z" transform="translate(-357.818 -256.004)" fill="#697491"/>
      <path id="Path_2236" data-name="Path 2236" d="M173.08,320.7h-2.8a2.161,2.161,0,0,1-2.161-2.161h0a2.161,2.161,0,0,1,2.161-2.161h2.8a2.161,2.161,0,0,1,2.161,2.161h0A2.161,2.161,0,0,1,173.08,320.7Z" transform="translate(-168.118 -307.534)" fill="#697491"/>
      <path id="Path_2237" data-name="Path 2237" d="M249.319,318.53a2.163,2.163,0,0,1-2.162,2.162h-2.8a2.161,2.161,0,0,1-1.754-3.424,2.01,2.01,0,0,1,.226-.265,2.151,2.151,0,0,1,1.528-.634h2.8A2.162,2.162,0,0,1,249.319,318.53Z" transform="translate(-231.349 -307.53)" fill="#697491"/>
    </g>
    <path id="Path_2238" data-name="Path 2238" d="M242.2,323.771a2.148,2.148,0,0,1,.407-1.262c2.456,1.056,3.536,2.3,3.943,3.424h-2.189A2.162,2.162,0,0,1,242.2,323.771Z" transform="translate(-183.765 -275.287)" fill="#576384"/>
    <g id="Group_269" data-name="Group 269" transform="translate(47.584 46.323)">
      <path id="Path_2239" data-name="Path 2239" d="M321.241,320.7h-2.8a2.161,2.161,0,0,1-2.161-2.161h0a2.161,2.161,0,0,1,2.161-2.161h2.8a2.161,2.161,0,0,1,2.161,2.161h0A2.161,2.161,0,0,1,321.241,320.7Z" transform="translate(-294.585 -316.373)" fill="#697491"/>
      <path id="Path_2240" data-name="Path 2240" d="M395.321,320.7h-2.8a2.161,2.161,0,0,1-2.161-2.161h0a2.161,2.161,0,0,1,2.161-2.161h2.8a2.161,2.161,0,0,1,2.161,2.161h0A2.161,2.161,0,0,1,395.321,320.7Z" transform="translate(-357.818 -316.373)" fill="#697491"/>
      <path id="Path_2241" data-name="Path 2241" d="M173.08,381.064h-2.8a2.161,2.161,0,0,1-2.161-2.161h0a2.161,2.161,0,0,1,2.161-2.161h2.8a2.161,2.161,0,0,1,2.161,2.161h0A2.161,2.161,0,0,1,173.08,381.064Z" transform="translate(-168.118 -367.903)" fill="#697491"/>
      <path id="Path_2242" data-name="Path 2242" d="M249.319,378.909a2.163,2.163,0,0,1-2.162,2.162h-2.8a2.161,2.161,0,1,1,0-4.321h2.8A2.161,2.161,0,0,1,249.319,378.909Z" transform="translate(-231.349 -367.909)" fill="#697491"/>
    </g>
    <path id="Path_2243" data-name="Path 2243" d="M244.357,376.747h2.4v3.008a3.5,3.5,0,0,1-.255,1.314h-2.148a2.161,2.161,0,1,1,0-4.322Z" transform="translate(-183.765 -321.584)" fill="#576384"/>
    <g id="Group_270" data-name="Group 270" transform="translate(69.278 55.163)">
      <path id="Path_2244" data-name="Path 2244" d="M321.241,381.064h-2.8a2.161,2.161,0,0,1-2.161-2.161h0a2.161,2.161,0,0,1,2.161-2.161h2.8A2.161,2.161,0,0,1,323.4,378.9h0A2.161,2.161,0,0,1,321.241,381.064Z" transform="translate(-316.279 -376.742)" fill="#697491"/>
      <path id="Path_2245" data-name="Path 2245" d="M395.321,381.064h-2.8a2.161,2.161,0,0,1-2.161-2.161h0a2.161,2.161,0,0,1,2.161-2.161h2.8a2.161,2.161,0,0,1,2.161,2.161h0A2.161,2.161,0,0,1,395.321,381.064Z" transform="translate(-379.512 -376.742)" fill="#697491"/>
    </g>
    <path id="Path_2246" data-name="Path 2246" d="M26.909,435.369v6.317c0,2.708,6.719,4.9,15.006,4.9s15.006-2.2,15.006-4.9v-6.317Z" transform="translate(-0.001 -371.622)" fill="#efae2e"/>
    <path id="Path_2247" data-name="Path 2247" d="M56.921,406.786c0,2.709-6.718,4.9-15.005,4.9s-15.007-2.195-15.007-4.9c0-1.181,1.281-2.266,3.414-3.112a33.249,33.249,0,0,1,11.594-1.79c8.032,0,14.592,2.062,14.986,4.655A1.519,1.519,0,0,1,56.921,406.786Z" transform="translate(0 -343.04)" fill="#ffe28f"/>
    <path id="Path_2248" data-name="Path 2248" d="M76.8,406.539a38.239,38.239,0,0,1-10.722,1.385A37.4,37.4,0,0,1,54.906,406.4a10.04,10.04,0,0,1-4.684-2.724,33.249,33.249,0,0,1,11.594-1.79C69.848,401.884,76.408,403.946,76.8,406.539Z" transform="translate(-19.9 -343.04)" fill="#ffd243"/>
    <path id="Path_2249" data-name="Path 2249" d="M56.033,354.142v6.317c0,2.708,6.719,4.9,15.006,4.9s15.006-2.2,15.006-4.9v-6.317Z" transform="translate(-24.861 -302.288)" fill="#efae2e"/>
    <path id="Path_2250" data-name="Path 2250" d="M86.045,325.557c0,2.708-6.718,4.9-15.005,4.9s-15.007-2.195-15.007-4.9a1.5,1.5,0,0,1,.02-.247c.394-2.594,6.954-4.656,14.987-4.656a33.24,33.24,0,0,1,11.592,1.79C84.764,323.29,86.045,324.374,86.045,325.557Z" transform="translate(-24.86 -273.703)" fill="#ffe28f"/>
    <path id="Path_2251" data-name="Path 2251" d="M82.745,322.444a10.023,10.023,0,0,1-4.684,2.724A37.4,37.4,0,0,1,66.888,326.7a38.244,38.244,0,0,1-10.723-1.385c.394-2.594,6.954-4.656,14.987-4.656A33.245,33.245,0,0,1,82.745,322.444Z" transform="translate(-24.973 -273.704)" fill="#ffd243"/>
    <path id="Path_2252" data-name="Path 2252" d="M26.909,272.915v6.317c0,2.708,6.719,4.9,15.006,4.9s15.006-2.2,15.006-4.9v-6.317Z" transform="translate(-0.001 -232.955)" fill="#efae2e"/>
    <path id="Path_2253" data-name="Path 2253" d="M56.921,244.328c0,1.069-1.045,2.058-2.821,2.863-2.724,1.235-7.166,2.041-12.185,2.041-8.289,0-15.007-2.2-15.007-4.9,0-1,.914-1.928,2.483-2.7,2.685-1.327,7.292-2.2,12.524-2.2C50.2,239.424,56.921,241.62,56.921,244.328Z" transform="translate(0 -204.367)" fill="#ffe28f"/>
    <path id="Path_2254" data-name="Path 2254" d="M71.395,244.327c0,1.069-1.045,2.058-2.821,2.863a42.812,42.812,0,0,1-7.921.7,37.411,37.411,0,0,1-11.174-1.525c-4.223-1.38-5.426-3.264-5.614-4.741,2.685-1.327,7.292-2.2,12.524-2.2C64.676,239.423,71.395,241.619,71.395,244.327Z" transform="translate(-14.474 -204.367)" fill="#ffd243"/>
    <path id="Path_2255" data-name="Path 2255" d="M56.033,208.27v6.317c0,2.708,6.719,4.9,15.006,4.9s15.006-2.2,15.006-4.9V208.27Z" transform="translate(-24.861 -177.775)" fill="#efae2e"/>
    <ellipse id="Ellipse_16" data-name="Ellipse 16" cx="15.007" cy="4.903" rx="15.007" ry="4.903" transform="translate(31.172 25.592)" fill="#ffe28f"/>
    <g id="Group_271" data-name="Group 271" transform="translate(31.086 17.699)">
      <path id="Path_2256" data-name="Path 2256" d="M60.4,147.081H56.57a1.131,1.131,0,1,1,0-2.262H60.4a1.131,1.131,0,1,1,0,2.262Z" transform="translate(-55.439 -141.312)" fill="#9eafc6"/>
      <path id="Path_2257" data-name="Path 2257" d="M60.4,123.137H56.57a1.131,1.131,0,1,1,0-2.262H60.4a1.131,1.131,0,1,1,0,2.262Z" transform="translate(-55.439 -120.875)" fill="#9eafc6"/>
    </g>
    <path id="Path_2258" data-name="Path 2258" d="M82.657,96.576h-.015a1.131,1.131,0,1,1,.015,0Z" transform="translate(-46.608 -80.505)" fill="#ffd243"/>
  </g>
</svg>
