<svg xmlns="http://www.w3.org/2000/svg" width="110" height="110" viewBox="0 0 110 110">
  <g id="Business_Contract" data-name="Business Contract" transform="translate(-2741 1214)">
    <circle id="Ellipse_100" data-name="Ellipse 100" cx="55" cy="55" r="55" transform="translate(2741 -1214)" fill="#f9ab3e"/>
    <path id="business" d="M15.673,43.419a1.187,1.187,0,0,1-.911-.181,1.214,1.214,0,0,1-.334-1.684l.547-.816.547-.816a1.218,1.218,0,0,1,.775-.516,1.5,1.5,0,0,1,.241-.022,1.216,1.216,0,0,1,1,1.892l-1.093,1.632a1.194,1.194,0,0,1-.775.512Zm3.44.811a1.213,1.213,0,0,1-.333-1.684l1.094-1.631a1.216,1.216,0,1,1,2.02,1.354L20.8,43.9a1.217,1.217,0,0,1-1.687.331Zm4.841.613a.851.851,0,0,1-.646-.123.866.866,0,0,1-.364-.551.847.847,0,0,1,.128-.644l.9-1.336a.86.86,0,1,1,1.43.957l-.9,1.336a.848.848,0,0,1-.548.362Zm16.6-9.653a1.608,1.608,0,0,0-.691-2.042,28.288,28.288,0,0,0-9.343-4.687l-7.443,2.46a2.948,2.948,0,0,1-.946.163c-1.925,0-2.837-2.183-3.212-3.078a.747.747,0,0,1,.13-.785,22.341,22.341,0,0,1,6.375-4.987,20.807,20.807,0,0,0-2.036-.666A6.451,6.451,0,0,0,19.1,22.926a.808.808,0,0,1-.194.093,4.026,4.026,0,0,1-1.152.159,6.366,6.366,0,0,1-1.9-.322L12.517,33.127a2.107,2.107,0,0,1-.339.64,2.5,2.5,0,0,0,.969,1.138.554.554,0,0,1,.073.049,2.707,2.707,0,0,1,3.255,2.116,2.771,2.771,0,0,1,.038.82,2.705,2.705,0,0,1,2.536,1.71,2.71,2.71,0,0,1,3.345-.256,2.666,2.666,0,0,1,1.038,1.332,2.356,2.356,0,0,1,3.325,3.113l1.645.873a1.11,1.11,0,0,0,1.04-1.962l-2.436-1.292a.749.749,0,0,1,.7-1.323l2.436,1.3L31.291,42a1.473,1.473,0,0,0,1.383-2.6h0l-2.463-1.31a.747.747,0,1,1,.7-1.318l3.923,2.086a1.473,1.473,0,1,0,1.384-2.6l-2.283-1.213L32.3,34.164a.747.747,0,1,1,.7-1.318l3.922,2.085,1.639.869a1.48,1.48,0,0,0,1.993-.609Zm-9.836-8.232a.765.765,0,0,0-.445.009L22.606,29.5c-.724.238-1.342.04-2.119-1.64a20.785,20.785,0,0,1,9.87-5.957,6.43,6.43,0,0,1,4.293,1.358.765.765,0,0,0,.194.088,5.36,5.36,0,0,0,3.325-.251l2.968,9.163a4.573,4.573,0,0,0-.411-.335,29.72,29.72,0,0,0-10.01-4.967Zm14.151-8.81,4.063,12.54a.651.651,0,0,1-.418.82L43.66,33.082a.646.646,0,0,1-.5-.04.655.655,0,0,1-.324-.379l-4.063-12.54a.653.653,0,0,1,.041-.5.644.644,0,0,1,.377-.322l4.854-1.57a.647.647,0,0,1,.819.415ZM36.751,1.318,41.229,5.75H36.751ZM35.256,0V6.5A.748.748,0,0,0,36,7.244h6.5v9.419L38.734,17.88a2.149,2.149,0,0,0-1.379,2.7l.354,1.1a4.167,4.167,0,0,1-2.334.269,7.7,7.7,0,0,0-5.284-1.517.5.5,0,0,0-.079.018,22.321,22.321,0,0,0-2.782.944.6.6,0,0,0-.145-.088,22.57,22.57,0,0,0-3.354-1.191.533.533,0,0,1-.08-.018,7.726,7.726,0,0,0-5.284,1.517,3.864,3.864,0,0,1-2.064-.176l.276-.855a2.15,2.15,0,0,0-1.379-2.7l-3.769-1.217V0ZM10.276,33.084,5.422,31.509A.651.651,0,0,1,5,30.689l4.063-12.54a.653.653,0,0,1,.619-.45.642.642,0,0,1,.2.035L14.74,19.3a.645.645,0,0,1,.377.322.653.653,0,0,1,.04.5L11.1,32.665a.654.654,0,0,1-.323.379.646.646,0,0,1-.5.04Zm1.77,7.152a1.223,1.223,0,0,0,1.687-.331l.547-.816.547-.816a1.216,1.216,0,1,0-2.02-1.354L11.713,38.55a1.215,1.215,0,0,0,.333,1.684ZM12,20.662a.746.746,0,0,1,.745-.75h0a.747.747,0,1,1-.75.75Zm28.4-.106a.749.749,0,1,0,.749-.75h0a.746.746,0,0,0-.745.75ZM15.072,4.189a.748.748,0,0,0,.748.75H32.2a.75.75,0,0,0,0-1.5H15.82a.748.748,0,0,0-.748.75Zm0,6.372a.747.747,0,0,0,.748.745H38.114a.747.747,0,1,0,0-1.495H15.82a.748.748,0,0,0-.748.75Zm0,6.367a.748.748,0,0,0,.748.75H38.114a.75.75,0,0,0,0-1.5H15.82a.748.748,0,0,0-.748.75Z" transform="translate(2769.029 -1181)" fill-rule="evenodd" opacity="0"/>
    <g id="Group_1034" data-name="Group 1034">
      <g id="Group_1021" data-name="Group 1021" opacity="0">
        <g id="Rectangle_170" data-name="Rectangle 170" transform="translate(2774 -1181)" fill="#fff" stroke="#707070" stroke-width="1" opacity="0">
          <rect width="44" height="44" stroke="none"/>
          <rect x="0.5" y="0.5" width="43" height="43" fill="none"/>
        </g>
        <g id="engineer" transform="translate(2737 -1181)">
          <g id="Group_1020" data-name="Group 1020" transform="translate(41 12.461)">
            <g id="Group_1018" data-name="Group 1018" transform="translate(6.016)">
              <path id="Path_2727" data-name="Path 2727" d="M134.633,145H112.289A1.289,1.289,0,0,0,111,146.289v1.031a1.289,1.289,0,0,0,.749,1.17,26.84,26.84,0,0,0,23.424,0,1.289,1.289,0,0,0,.749-1.17v-1.031A1.289,1.289,0,0,0,134.633,145Z" transform="translate(-111 -145)"/>
            </g>
            <g id="Group_1019" data-name="Group 1019" transform="translate(0 17.196)">
              <path id="Path_2728" data-name="Path 2728" d="M167.734,360.944h1.1V350.127a11.149,11.149,0,0,1-6.785-3.385Z" transform="translate(-151.65 -346.601)"/>
              <path id="Path_2729" data-name="Path 2729" d="M271,360.944h1.1l5.681-14.2A11.149,11.149,0,0,1,271,350.127Z" transform="translate(-251.234 -346.601)"/>
              <path id="Path_2730" data-name="Path 2730" d="M48.57,345.1A15.025,15.025,0,0,0,41,358.153a1.289,1.289,0,0,0,1.289,1.289H54.307Z" transform="translate(-41 -345.099)"/>
              <path id="Path_2731" data-name="Path 2731" d="M321.893,345.1l-5.737,14.343h12.018a1.289,1.289,0,0,0,1.289-1.289,15.025,15.025,0,0,0-7.57-13.054Z" transform="translate(-292.51 -345.099)"/>
            </g>
          </g>
          <path id="Path_2732" data-name="Path 2732" d="M164.594,232.911A29.222,29.222,0,0,1,156,231.594v2.183a8.594,8.594,0,0,0,17.188,0v-2.183a29.218,29.218,0,0,1-8.594,1.317Z" transform="translate(-105.117 -211.691)"/>
          <path id="Path_2733" data-name="Path 2733" d="M155.485,9.883a10.626,10.626,0,0,0-1.906-3.952,10.837,10.837,0,0,0-3.369-2.88v.817a1.289,1.289,0,1,1-2.578,0V1.289A1.289,1.289,0,0,0,146.343,0h-2.578a1.289,1.289,0,0,0-1.289,1.289V3.867a1.289,1.289,0,1,1-2.578,0V3.05a10.837,10.837,0,0,0-3.369,2.88,10.625,10.625,0,0,0-1.906,3.952Z" transform="translate(-85.577)"/>
        </g>
      </g>
      <g id="agreement" transform="translate(2772.4 -1182)">
        <g id="Group_1031" data-name="Group 1031" transform="translate(15.495 22.023)">
          <g id="Group_1030" data-name="Group 1030">
            <g id="Group_1022" data-name="Group 1022" transform="translate(4.616 12.574)">
              <path id="Path_2734" data-name="Path 2734" d="M31.463,48.993l-2.389,3.475a1.106,1.106,0,0,1-1.448.29,1.037,1.037,0,0,1-.29-1.448l2.389-3.475a1.032,1.032,0,0,1,.869-.434,1.364,1.364,0,0,1,.579.145,1.054,1.054,0,0,1,.434.652,1,1,0,0,1-.145.8Z" transform="translate(-27.166 -47.4)"/>
            </g>
            <g id="Group_1023" data-name="Group 1023">
              <path id="Path_2735" data-name="Path 2735" d="M30.427,31.82l-7.241,9.92c-.072.145-.217.217-.434.072l-1.81-1.3a.273.273,0,0,1-.072-.434l7.241-9.92a.349.349,0,0,1,.434-.072l1.81,1.3a.273.273,0,0,1,.072.434Z" transform="translate(-20.791 -30.034)"/>
            </g>
            <g id="Group_1024" data-name="Group 1024" transform="translate(7.585 15.615)">
              <path id="Path_2736" data-name="Path 2736" d="M34.766,53.193,33.173,55.51a1.106,1.106,0,0,1-1.448.29,1.037,1.037,0,0,1-.29-1.448l1.593-2.317A1.032,1.032,0,0,1,33.9,51.6a1.7,1.7,0,0,1,.579.145,1.139,1.139,0,0,1,.287,1.448Z" transform="translate(-31.266 -51.6)"/>
            </g>
            <g id="Group_1025" data-name="Group 1025" transform="translate(10.481 18.848)">
              <path id="Path_2737" data-name="Path 2737" d="M37.9,57.611a12.957,12.957,0,0,0-.724,1.086,1.106,1.106,0,0,1-1.448.29.977.977,0,0,1-.29-1.376l.724-1.086a1.037,1.037,0,0,1,1.448-.29.987.987,0,0,1,.29,1.376Z" transform="translate(-35.266 -56.066)"/>
            </g>
            <g id="Group_1026" data-name="Group 1026" transform="translate(13.436 21.373)">
              <path id="Path_2738" data-name="Path 2738" d="M41.485,61.18l-.217.434a1.106,1.106,0,0,1-1.448.29,1.037,1.037,0,0,1-.29-1.448l.362-.579a1.031,1.031,0,0,1,1.593,1.3Z" transform="translate(-39.348 -59.553)"/>
            </g>
            <g id="Group_1027" data-name="Group 1027" transform="translate(4.134 3.595)">
              <path id="Path_2739" data-name="Path 2739" d="M47.28,46.078a.712.712,0,0,1,.217,1.014.779.779,0,0,1-1.014.217L42.791,44.7a.779.779,0,0,0-1.014.145.766.766,0,0,0,.145,1.014L45.035,48.1a.779.779,0,0,1,.217,1.014.712.712,0,0,1-1.014.217l-2.824-2.027a.779.779,0,0,0-1.014.145.712.712,0,0,0,.217,1.014l2.824,1.955a.724.724,0,0,1,.217,1.014.779.779,0,0,1-1.014.217c-.072-.072-2.824-1.883-2.751-1.883a.712.712,0,0,0-1.014.217A.735.735,0,0,0,39.1,51c.869.579,2.245,1.521,2.172,1.448a.766.766,0,0,1,.145,1.014.779.779,0,0,1-1.014.217l-.941-.652a2.279,2.279,0,0,0-.941-1.231,2.384,2.384,0,0,0-1.376-.434,1.594,1.594,0,0,0-.072-.579,2.471,2.471,0,0,0-1.086-1.593,1.951,1.951,0,0,0-1.087-.36,2.582,2.582,0,0,0-1.014-2.824,2.155,2.155,0,0,0-1.086-.362,2.442,2.442,0,0,0-1.014-2.679,2.384,2.384,0,0,0-1.376-.434,2.75,2.75,0,0,0-2.1,1.086l-.507.8c-.362-.362-.869-.724-1.3-1.231L32.51,35a13.05,13.05,0,0,1,2.462,1.158,4.288,4.288,0,0,0-.434.29,3.543,3.543,0,0,0-1.955,2.389,2.091,2.091,0,0,0,1.086,2.172,4.342,4.342,0,0,0,4.489-.724c.29-.29,1.014-.941,1.3-.724Z" transform="translate(-26.5 -35)"/>
            </g>
            <g id="Group_1028" data-name="Group 1028" transform="translate(11.648 4.815)">
              <path id="Path_2740" data-name="Path 2740" d="M50.8,43.212a2.271,2.271,0,0,1-.362,1.738L43.2,38.94c-1.086-.869-2.317-.145-3.258.8a2.526,2.526,0,0,1-1.665.579c-.652.072-1.521-.145-1.376-.8A2.554,2.554,0,0,1,38.2,38a10.139,10.139,0,0,1,1.231-.724H39.5a4.564,4.564,0,0,1,3.548-.362,8.1,8.1,0,0,0,4.2.652L50.8,42.923Z" transform="translate(-36.878 -36.685)"/>
            </g>
            <g id="Group_1029" data-name="Group 1029" transform="translate(21.968 1.496)">
              <path id="Path_2741" data-name="Path 2741" d="M58.928,41.658l-1.231.8a.724.724,0,0,1-1.014-.217l-5.43-8.182a.712.712,0,0,1,.217-1.014l1.231-.8a1.029,1.029,0,0,1,.434-.145.645.645,0,0,1,.579.362l5.43,8.182a.712.712,0,0,1-.217,1.014Z" transform="translate(-51.131 -32.1)"/>
            </g>
          </g>
        </g>
        <g id="Group_1032" data-name="Group 1032" transform="translate(2.034 1.434)">
          <path id="Path_2742" data-name="Path 2742" d="M8.572,7.972V1.6L2.2,7.972Z" transform="translate(-2.2 -1.6)"/>
        </g>
        <g id="Group_1033" data-name="Group 1033" transform="translate(1.6 1)">
          <path id="Path_2743" data-name="Path 2743" d="M31.938,1H9.854V8.53a.684.684,0,0,1-.724.724H1.6V39.23a.684.684,0,0,0,.724.724H18.833a2.5,2.5,0,0,1,.217-2.245l1.014-1.521-.072-.072a17.066,17.066,0,0,1-1.3-1.231,1.736,1.736,0,0,1-2.172.072l-1.81-1.3a1.836,1.836,0,0,1-.434-2.462l7.241-9.92a1.777,1.777,0,0,1,2.462-.434l1.81,1.3a1.949,1.949,0,0,1,.579,2.245,11.5,11.5,0,0,1,2.317,1.158l.724.434a6.246,6.246,0,0,1,2.462-.507,2,2,0,0,1,.652.072V1.724A.549.549,0,0,0,31.938,1ZM7.972,32.062H6.524a.724.724,0,1,1,0-1.448H7.972a.724.724,0,1,1,0,1.448Zm0-5.792H6.524a.724.724,0,1,1,0-1.448H7.972a.724.724,0,1,1,0,1.448Zm0-5.792H6.524a.724.724,0,1,1,0-1.448H7.972a.724.724,0,1,1,0,1.448Zm0-5.792H6.524a.724.724,0,1,1,0-1.448H7.972a.724.724,0,1,1,0,1.448Zm7.24,11.584h-3.62a.724.724,0,1,1,0-1.448h3.62a.724.724,0,1,1,0,1.448ZM18.4,20.477H11.664a.724.724,0,0,1,0-1.448H18.4a.684.684,0,0,1,.724.724A.726.726,0,0,1,18.4,20.477Zm9.413-5.792H11.592a.724.724,0,0,1,0-1.448H27.738a.684.684,0,0,1,.724.724.63.63,0,0,1-.651.724Zm0-5.43H13.33a.724.724,0,0,1,0-1.448H27.811a.684.684,0,0,1,.724.724.726.726,0,0,1-.724.723Z" transform="translate(-1.6 -1)"/>
        </g>
      </g>
    </g>
  </g>
</svg>
