<svg xmlns="http://www.w3.org/2000/svg" width="110" height="110" viewBox="0 0 110 110">
  <g id="Business" transform="translate(-0.5)">
    <circle id="Ellipse_119" data-name="Ellipse 119" cx="55" cy="55" r="55" transform="translate(0.5)" fill="#f9ab3e"/>
    <g id="Group_1203" data-name="Group 1203">
      <g id="company" transform="translate(33.5 33)" opacity="0">
        <g id="Group_1198" data-name="Group 1198" transform="translate(28.618 14.362)">
          <g id="Group_1197" data-name="Group 1197">
            <path id="Path_2886" data-name="Path 2886" d="M345.35,193.422h-1.383V171.375a1.261,1.261,0,0,0-.882-1.219L331,166.11v29.906h14.35a1.3,1.3,0,1,0,0-2.594Zm-3.977,0h-2.594v-5.188h-2.594v5.188h-2.594v-6.484a1.284,1.284,0,0,1,1.3-1.3h5.188a1.284,1.284,0,0,1,1.3,1.3v6.484Zm-1.3-10.375h-5.187a1.3,1.3,0,1,1,0-2.594h5.188a1.3,1.3,0,1,1,0,2.594Zm0-5.188h-5.187a1.3,1.3,0,1,1,0-2.594h5.188a1.3,1.3,0,1,1,0,2.594Z" transform="translate(-330.998 -166.11)"/>
          </g>
        </g>
        <g id="Group_1200" data-name="Group 1200">
          <g id="Group_1199" data-name="Group 1199">
            <path id="Path_2887" data-name="Path 2887" d="M25.2,7.86,4.452.079A1.311,1.311,0,0,0,2.688,1.3V41.674H1.3a1.3,1.3,0,1,0,0,2.594H26.032V9.079A1.3,1.3,0,0,0,25.2,7.86ZM13.063,41.674H7.876V35.19a1.284,1.284,0,0,1,1.3-1.3h3.891v7.781ZM11.766,31.3H9.173a1.3,1.3,0,0,1,0-2.594h2.594a1.3,1.3,0,1,1,0,2.594Zm0-5.188H9.173a1.3,1.3,0,0,1,0-2.594h2.594a1.3,1.3,0,0,1,0,2.594Zm0-5.188H9.173a1.3,1.3,0,0,1,0-2.594h2.594a1.3,1.3,0,1,1,0,2.594Zm0-5.188H9.173a1.3,1.3,0,0,1,0-2.594h2.594a1.3,1.3,0,1,1,0,2.594Zm9.078,25.938H15.657V33.893h3.891a1.284,1.284,0,0,1,1.3,1.3v6.484ZM19.548,31.3H16.954a1.3,1.3,0,1,1,0-2.594h2.594a1.3,1.3,0,1,1,0,2.594Zm0-5.188H16.954a1.3,1.3,0,1,1,0-2.594h2.594a1.3,1.3,0,1,1,0,2.594Zm0-5.188H16.954a1.3,1.3,0,1,1,0-2.594h2.594a1.3,1.3,0,1,1,0,2.594Zm0-5.188H16.954a1.3,1.3,0,1,1,0-2.594h2.594a1.3,1.3,0,1,1,0,2.594Z" transform="translate(-0.008)"/>
          </g>
        </g>
      </g>
      <g id="briefcase" transform="translate(33.5 -5.666)">
        <g id="Group_1202" data-name="Group 1202" transform="translate(0 42.666)">
          <g id="Group_1201" data-name="Group 1201">
            <path id="Path_2888" data-name="Path 2888" d="M40.578,48.2H31.355V46.355a3.693,3.693,0,0,0-3.689-3.689H16.6a3.693,3.693,0,0,0-3.689,3.689V48.2H3.689A3.693,3.693,0,0,0,0,51.888v5.533A3.692,3.692,0,0,0,3.689,61.11H18.444v-.922a.922.922,0,0,1,.922-.922H24.9a.922.922,0,0,1,.922.922v.922H40.578a3.692,3.692,0,0,0,3.689-3.689V51.888A3.692,3.692,0,0,0,40.578,48.2Zm-12.911,0H16.6V46.355H27.667Z" transform="translate(0 -42.666)"/>
            <path id="Path_2889" data-name="Path 2889" d="M43.755,266.481a.923.923,0,0,0-.967.091,3.642,3.642,0,0,1-2.21.758H25.822v2.77a.922.922,0,0,1-.922.922H19.367a.922.922,0,0,1-.922-.922v-2.77H3.689a3.642,3.642,0,0,1-2.21-.758A.922.922,0,0,0,0,267.307v12.934a3.693,3.693,0,0,0,3.689,3.689H40.578a3.693,3.693,0,0,0,3.689-3.689V267.307a.922.922,0,0,0-.512-.826Z" transform="translate(0 -247.041)"/>
          </g>
        </g>
      </g>
    </g>
  </g>
</svg>
