<svg xmlns="http://www.w3.org/2000/svg" width="110" height="110" viewBox="0 0 110 110">
  <g id="Child_Care_Authorization" data-name="Child Care Authorization" transform="translate(-0.5)">
    <g id="Group_1158" data-name="Group 1158">
      <circle id="Ellipse_113" data-name="Ellipse 113" cx="55" cy="55" r="55" transform="translate(0.5)" fill="#f9ab3e"/>
      <g id="author" transform="translate(32.5 33)">
        <path id="Path_2866" data-name="Path 2866" d="M170,331.616v.293a1.3,1.3,0,0,0,.158.621l2.594,4.755a1.3,1.3,0,0,0,2.277,0l2.594-4.755a1.3,1.3,0,0,0,.158-.621v-.293a10.8,10.8,0,0,1-7.781,0Z" transform="translate(-155.302 -302.945)"/>
        <path id="Path_2867" data-name="Path 2867" d="M136.427,123.32v-4.755h-1.852a9.831,9.831,0,0,1-7.491-3.464,1.3,1.3,0,0,0-2.212.412,4.558,4.558,0,0,1-4.3,3.052H120v4.755a8.214,8.214,0,1,0,16.428,0Z" transform="translate(-109.625 -104.732)"/>
        <path id="Path_2868" data-name="Path 2868" d="M102.3,11.24a1.967,1.967,0,0,0,1.854-1.316,3.89,3.89,0,0,1,6.637-1.235,7.226,7.226,0,0,0,5.514,2.55h2.716l.115-.086A6.2,6.2,0,0,0,115.418,0H112.2a10.693,10.693,0,0,0-5.841,1.729h-.42a5.934,5.934,0,0,0-4.736,9.51Z" transform="translate(-91.354)"/>
        <path id="Path_2869" data-name="Path 2869" d="M29.136,342.224v-.62a3.868,3.868,0,0,1,.66-2.166l-4.735-1.184a3.9,3.9,0,0,1-.464,1.581L22,344.592a3.891,3.891,0,0,1-6.831,0l-2.594-4.755a3.9,3.9,0,0,1-.464-1.582l-5.894,1.473A8.2,8.2,0,0,0,0,347.7v4.283a1.3,1.3,0,0,0,1.3,1.3H5.187v-3.2a1.3,1.3,0,1,1,2.594,0v3.2h19.46a5.153,5.153,0,0,1-.7-2.594v-3.318a6.379,6.379,0,0,1,2.595-5.147Z" transform="translate(0 -309.01)"/>
        <path id="Path_2870" data-name="Path 2870" d="M348.24,365.458V363.3a1.3,1.3,0,0,0-1.3-1.3h-6.052a1.3,1.3,0,0,0-1.3,1.3v2.161a3.793,3.793,0,0,0-2.594,3.6v3.318a2.594,2.594,0,0,0,2.594,2.594h8.646a2.594,2.594,0,0,0,2.594-2.594v-3.318a3.793,3.793,0,0,0-2.588-3.6Z" transform="translate(-307.864 -330.702)"/>
        <path id="Path_2871" data-name="Path 2871" d="M407.409,94.48l.651-2.429a24.681,24.681,0,0,0,4.625-8.91A38.981,38.981,0,0,0,414,73.273a1.3,1.3,0,0,0-2.012-1.055c-.169.111-4.147,2.8-5.975,9.107a22.833,22.833,0,0,0-.459,10.069l-.827,3.086Z" transform="translate(-369.732 -65.776)"/>
      </g>
    </g>
  </g>
</svg>
