<svg xmlns="http://www.w3.org/2000/svg" width="110" height="110" viewBox="0 0 110 110">
  <g id="Children" transform="translate(-0.5)">
    <circle id="Ellipse_117" data-name="Ellipse 117" cx="55" cy="55" r="55" transform="translate(0.5)" fill="#f9ab3e"/>
    <g id="Group_1193" data-name="Group 1193">
      <g id="company" transform="translate(33.5 33)" opacity="0">
        <g id="Group_1190" data-name="Group 1190" transform="translate(28.618 14.362)">
          <g id="Group_1189" data-name="Group 1189">
            <path id="Path_2882" data-name="Path 2882" d="M345.35,193.422h-1.383V171.375a1.261,1.261,0,0,0-.882-1.219L331,166.11v29.906h14.35a1.3,1.3,0,1,0,0-2.594Zm-3.977,0h-2.594v-5.188h-2.594v5.188h-2.594v-6.484a1.284,1.284,0,0,1,1.3-1.3h5.188a1.284,1.284,0,0,1,1.3,1.3v6.484Zm-1.3-10.375h-5.187a1.3,1.3,0,1,1,0-2.594h5.188a1.3,1.3,0,1,1,0,2.594Zm0-5.188h-5.187a1.3,1.3,0,1,1,0-2.594h5.188a1.3,1.3,0,1,1,0,2.594Z" transform="translate(-330.998 -166.11)"/>
          </g>
        </g>
        <g id="Group_1192" data-name="Group 1192">
          <g id="Group_1191" data-name="Group 1191">
            <path id="Path_2883" data-name="Path 2883" d="M25.2,7.86,4.452.079A1.311,1.311,0,0,0,2.688,1.3V41.674H1.3a1.3,1.3,0,1,0,0,2.594H26.032V9.079A1.3,1.3,0,0,0,25.2,7.86ZM13.063,41.674H7.876V35.19a1.284,1.284,0,0,1,1.3-1.3h3.891v7.781ZM11.766,31.3H9.173a1.3,1.3,0,0,1,0-2.594h2.594a1.3,1.3,0,1,1,0,2.594Zm0-5.188H9.173a1.3,1.3,0,0,1,0-2.594h2.594a1.3,1.3,0,0,1,0,2.594Zm0-5.188H9.173a1.3,1.3,0,0,1,0-2.594h2.594a1.3,1.3,0,1,1,0,2.594Zm0-5.188H9.173a1.3,1.3,0,0,1,0-2.594h2.594a1.3,1.3,0,1,1,0,2.594Zm9.078,25.938H15.657V33.893h3.891a1.284,1.284,0,0,1,1.3,1.3v6.484ZM19.548,31.3H16.954a1.3,1.3,0,1,1,0-2.594h2.594a1.3,1.3,0,1,1,0,2.594Zm0-5.188H16.954a1.3,1.3,0,1,1,0-2.594h2.594a1.3,1.3,0,1,1,0,2.594Zm0-5.188H16.954a1.3,1.3,0,1,1,0-2.594h2.594a1.3,1.3,0,1,1,0,2.594Zm0-5.188H16.954a1.3,1.3,0,1,1,0-2.594h2.594a1.3,1.3,0,1,1,0,2.594Z" transform="translate(-0.008)"/>
          </g>
        </g>
      </g>
      <g id="sister-and-brother" transform="translate(33.5 22.534)">
        <circle id="Ellipse_118" data-name="Ellipse 118" cx="4.59" cy="4.59" r="4.59" transform="translate(27.706 12.472)"/>
        <path id="Path_2884" data-name="Path 2884" d="M43.992,128.476l-7.064-12.124a2.017,2.017,0,0,0-1.543-.991H29.372a2.017,2.017,0,0,0-1.543.991l-5.322,9.135L16.6,115.346a2.019,2.019,0,0,0-1.752-1H9.091a2.018,2.018,0,0,0-1.752,1L.275,127.47a2.021,2.021,0,1,0,3.492,2.03l3.116-5.348v2.29L5.488,136.494a1.408,1.408,0,0,0,1.394,1.6h0v6.15a2.166,2.166,0,0,0,2.055,2.182,2.133,2.133,0,0,0,2.21-2.131v-6.2h1.685v6.15a2.166,2.166,0,0,0,2.055,2.182A2.133,2.133,0,0,0,17.1,144.3v-6.2h0a1.408,1.408,0,0,0,1.394-1.6L17.1,126.446V124.23l3.07,5.27a6.482,6.482,0,0,0,1.324,1.735,2.02,2.02,0,0,0,2.763-.729l3.028-5.2L27.256,143.2a2.132,2.132,0,0,0,2.132,2.133h.029A2.133,2.133,0,0,0,31.55,143.2l-.029-10.793a.862.862,0,0,1,.786-.869.842.842,0,0,1,.9.841V143.15a2.166,2.166,0,0,0,2.055,2.182,2.133,2.133,0,0,0,2.21-2.131V125.313l3.028,5.2a2.021,2.021,0,1,0,3.492-2.035Z" transform="translate(0 -92.917)"/>
        <path id="Path_2885" data-name="Path 2885" d="M37.679,20.554l1.136-.1a1.1,1.1,0,0,0,.986-1.312,3.619,3.619,0,0,1,.554-3.192v.106a4.59,4.59,0,1,0,9.179,0c0-.036,0-.071,0-.106a3.619,3.619,0,0,1,.554,3.192,1.1,1.1,0,0,0,.986,1.312l1.136.1a1.1,1.1,0,0,0,1.2-.983c.156-1.456.129-3.639-.694-4.506a3.936,3.936,0,0,0-3.689-1.116,4.589,4.589,0,0,0-8.154,0,3.937,3.937,0,0,0-3.689,1.116c-.823.867-.85,3.051-.694,4.506a1.1,1.1,0,0,0,1.189.983Z" transform="translate(-32.883)"/>
      </g>
    </g>
  </g>
</svg>
