<svg xmlns="http://www.w3.org/2000/svg" width="110" height="110" viewBox="0 0 110 110">
  <g id="Debt_Collection" data-name="Debt Collection" transform="translate(-0.5 -0.5)">
    <circle id="Ellipse_129" data-name="Ellipse 129" cx="55" cy="55" r="55" transform="translate(0.5 0.5)" fill="#f9ab3e"/>
    <g id="debt_1_" data-name="debt (1)" transform="translate(18.483 33.5)">
      <path id="Path_87441" data-name="Path 87441" d="M57.809,37.512,50.922,11.527a1.307,1.307,0,0,0-1.264-.973H42.138a6.535,6.535,0,1,0-10.3,0H23.786a1.307,1.307,0,0,0-1.269.993L16.055,37.6a1.307,1.307,0,0,0,.1.893L18.82,43.9a1.308,1.308,0,0,0,1.173.729H53.987a1.307,1.307,0,0,0,1.184-.754L57.73,38.4a1.307,1.307,0,0,0,.079-.888ZM36.985,2.615a3.922,3.922,0,1,1-3.922,3.922A3.927,3.927,0,0,1,36.985,2.615ZM38.22,34.7v.654a1.307,1.307,0,0,1-2.615,0V34.8a7.04,7.04,0,0,1-2.627-.994,1.307,1.307,0,1,1,1.432-2.188,4.022,4.022,0,0,0,3.4.462,2.046,2.046,0,0,0,1.159-1.541c.146-1.308-1.339-1.894-2.476-2.344a5.777,5.777,0,0,1-3.308-2.4,3.921,3.921,0,0,1,2.421-5.545V19.7a1.307,1.307,0,0,1,2.615,0v.458A4.469,4.469,0,0,1,40.3,21.2a1.307,1.307,0,0,1-1.773,1.922,2.442,2.442,0,0,0-2.545-.189,1.29,1.29,0,0,0-.509,1.6c.6,1.079,2.728,1.185,4.381,2.474a4.357,4.357,0,0,1-1.633,7.7Z"/>
    </g>
  </g>
</svg>
