<svg xmlns="http://www.w3.org/2000/svg" width="74.967" height="74.967" viewBox="0 0 74.967 74.967">
  <g id="_Dissolution" data-name=" Dissolution" transform="translate(0 0)">
    <path id="Path_2259" data-name="Path 2259" d="M243.953,416.4h-3.221a.732.732,0,0,1-.732-.732V402.343L242.343,400l2.343,2.343v13.324A.732.732,0,0,1,243.953,416.4Z" transform="translate(-204.859 -341.432)" fill="#c2bce0"/>
    <path id="Path_2260" data-name="Path 2260" d="M.844,18.179A15.063,15.063,0,0,1,0,13.2V9.371A9.372,9.372,0,0,1,18.447,7.028Z" transform="translate(0)" fill="#6354b1"/>
    <path id="Path_2261" data-name="Path 2261" d="M72.541,6.6v4.309l5.738-3.635A9.378,9.378,0,0,0,70.1.287,9.337,9.337,0,0,1,72.541,6.6Z" transform="translate(-59.833 -0.245)" fill="#54469c"/>
    <path id="Path_2262" data-name="Path 2262" d="M401.9,18.179a15.065,15.065,0,0,0,.844-4.978V9.371a9.371,9.371,0,0,0-18.742,0v.937Z" transform="translate(-327.775)" fill="#fee903"/>
    <path id="Path_2263" data-name="Path 2263" d="M454.1.287A9.337,9.337,0,0,1,456.541,6.6v3.83a15.063,15.063,0,0,1-.958,5.291l6.147,2.7a15.064,15.064,0,0,0,.844-4.978V9.616A9.372,9.372,0,0,0,454.1.287Z" transform="translate(-387.607 -0.245)" fill="#f4d902"/>
    <path id="Path_2264" data-name="Path 2264" d="M21.085,366.056,11.714,368.4,0,366.056V352H21.085Z" transform="translate(0 -300.46)" fill="#e3ca00"/>
    <path id="Path_2265" data-name="Path 2265" d="M368,366.056l9.371,2.343,11.714-2.343V352H368Z" transform="translate(-314.117 -300.46)" fill="#e41f2d"/>
    <path id="Path_2266" data-name="Path 2266" d="M304.732,457.371H328.6a5.857,5.857,0,0,0,5.857-5.857V448H309.125A5.125,5.125,0,0,0,304,453.125v3.514A.732.732,0,0,0,304.732,457.371Z" transform="translate(-259.488 -382.404)" fill="#6e61b6"/>
    <path id="Path_2267" data-name="Path 2267" d="M167.028,320h-4.685L160,324.685l2.343,4.685h9.965v-4.092A5.279,5.279,0,0,0,167.028,320Z" transform="translate(-136.573 -273.145)" fill="#fff3de"/>
    <path id="Path_2268" data-name="Path 2268" d="M11.951,52.173V49.508A1.508,1.508,0,0,1,13.459,48h9.91a9.389,9.389,0,0,1,.3,2.343v4.685l1.3,2.59a1.448,1.448,0,0,1-1.3,2.1v3.514A5.86,5.86,0,0,1,15.64,68.67h0l-1.218-.486a15.084,15.084,0,0,1-8.655-9.034l3.808-2.539A5.335,5.335,0,0,0,11.951,52.173Z" transform="translate(-4.923 -40.972)" fill="#fff3de"/>
    <path id="Path_2269" data-name="Path 2269" d="M21.085,237.324V233.05a9.05,9.05,0,0,0-9.05-9.05H5.279A5.279,5.279,0,0,0,0,229.279V242.9a4.525,4.525,0,0,0,4.525,4.525H25.77v-9.371H21.817A.732.732,0,0,1,21.085,237.324Z" transform="translate(0 -191.202)" fill="#fee903"/>
    <path id="Path_2270" data-name="Path 2270" d="M172.141,320.04a5.259,5.259,0,0,1,.505,2.257v.988a3.1,3.1,0,0,1-3.1,3.1H165.7l1.508,3.017h9.965v-4.092A5.279,5.279,0,0,0,172.141,320.04Z" transform="translate(-141.436 -273.18)" fill="#ffe5c2"/>
    <path id="Path_2271" data-name="Path 2271" d="M1.759,363.4a4.527,4.527,0,0,0,4.268,3.017H27.271V363.4Z" transform="translate(-1.501 -310.187)" fill="#f4d902"/>
    <path id="Path_2272" data-name="Path 2272" d="M273.223,320h4.685l2.343,4.685-2.343,4.685h-9.965v-4.092A5.279,5.279,0,0,1,273.223,320Z" transform="translate(-228.712 -273.145)" fill="#ffeee6"/>
    <path id="Path_2273" data-name="Path 2273" d="M267.944,363.4v3.017h9.965l1.508-3.017Z" transform="translate(-228.712 -310.187)" fill="#ffdfcf"/>
    <path id="Path_2274" data-name="Path 2274" d="M340.685,237.324V233.05a9.05,9.05,0,0,1,9.05-9.05h6.755a5.279,5.279,0,0,1,5.279,5.279V242.9a4.525,4.525,0,0,1-4.525,4.525H336v-9.371h3.953A.732.732,0,0,0,340.685,237.324Z" transform="translate(-286.803 -191.202)" fill="#fd4755"/>
    <path id="Path_2275" data-name="Path 2275" d="M356.491,224h-1.262a5.259,5.259,0,0,1,.508,2.263v10.52a7.628,7.628,0,0,1-7.628,7.628H336v3.017h21.245a4.525,4.525,0,0,0,4.525-4.525V229.279A5.279,5.279,0,0,0,356.491,224Z" transform="translate(-286.803 -191.202)" fill="#fb2b3a"/>
    <path id="Path_2276" data-name="Path 2276" d="M118.761,388.685h-53.3A1.464,1.464,0,0,1,64,387.221v-1.757A1.464,1.464,0,0,1,65.464,384h53.3a1.464,1.464,0,0,1,1.464,1.464v1.757A1.464,1.464,0,0,1,118.761,388.685Z" transform="translate(-54.629 -327.775)" fill="#fe9738"/>
    <path id="Path_2277" data-name="Path 2277" d="M29.723,457.371H5.857A5.857,5.857,0,0,1,0,451.514V448H25.331a5.125,5.125,0,0,1,5.125,5.125v3.514A.732.732,0,0,1,29.723,457.371Z" transform="translate(0 -382.404)" fill="#01c0fa"/>
    <path id="Path_2278" data-name="Path 2278" d="M387.262,45.806V44.48a2.264,2.264,0,0,0-.239-1.012l-.647-1.294a3.017,3.017,0,0,0-4.25-1.238l-6.577,3.946v3.748l-1.3,2.59a1.448,1.448,0,0,0,1.3,2.1v3.514a5.86,5.86,0,0,0,8.024,5.443h0l1.218-.486a15.077,15.077,0,0,0,7.825-7.1l0-.01a15.092,15.092,0,0,0,.826-1.921L389.613,50.2A5.279,5.279,0,0,1,387.262,45.806Z" transform="translate(-319.323 -34.575)" fill="#ffeee6"/>
    <path id="Path_2279" data-name="Path 2279" d="M52.983,57.618l-1.3-2.59V50.343a9.389,9.389,0,0,0-.3-2.343H45.655V60.211A5.862,5.862,0,0,1,38.6,65.945a15.065,15.065,0,0,0,3.848,2.24l1.218.486h0a5.86,5.86,0,0,0,8.024-5.443V59.714A1.448,1.448,0,0,0,52.983,57.618Z" transform="translate(-32.946 -40.972)" fill="#ffe5c2"/>
    <path id="Path_2280" data-name="Path 2280" d="M405.966,97.791l-3.833-2.555a5.277,5.277,0,0,1-1.761-1.967,15.06,15.06,0,0,1-1.266,3.427l-.005.01a15.077,15.077,0,0,1-7.825,7.1l-1.218.486h0a5.818,5.818,0,0,1-1.292.349,5.864,5.864,0,0,0,7.326,2.667h0l1.218-.486a15.077,15.077,0,0,0,7.825-7.1l0-.01A15.062,15.062,0,0,0,405.966,97.791Z" transform="translate(-331.843 -79.613)" fill="#ffdfcf"/>
    <path id="Path_2281" data-name="Path 2281" d="M69.312,279.149v-1.464H58.7V274.1a1.1,1.1,0,0,0-1.132-1.1,1.129,1.129,0,0,0-1.064,1.144v4.64a1.1,1.1,0,0,0,1.1,1.1H70.044A.732.732,0,0,1,69.312,279.149Z" transform="translate(-48.227 -233.027)" fill="#f4d902"/>
    <path id="Path_2282" data-name="Path 2282" d="M363.732,279.149a.732.732,0,0,1-.732.732h12.446a1.1,1.1,0,0,0,1.1-1.1V274.1a1.1,1.1,0,0,0-1.132-1.1,1.129,1.129,0,0,0-1.064,1.144v3.541H363.732Z" transform="translate(-309.849 -233.027)" fill="#fb2b3a"/>
    <path id="Path_2283" data-name="Path 2283" d="M202.068,96H187.017A3.017,3.017,0,0,0,184,99.017v15.051a3.017,3.017,0,0,0,3.017,3.017H191.9a.733.733,0,0,1,.518.214l1.611,1.611a.732.732,0,0,0,1.035,0l1.611-1.611a.732.732,0,0,1,.518-.214h4.879a3.017,3.017,0,0,0,3.017-3.017V99.017A3.017,3.017,0,0,0,202.068,96Z" transform="translate(-157.059 -81.944)" fill="#fd4755"/>
    <path id="Path_2284" data-name="Path 2284" d="M202.068,96h-3.017v12.524a5.544,5.544,0,0,1-5.544,5.544H184a3.017,3.017,0,0,0,3.017,3.017H191.9a.733.733,0,0,1,.518.214l1.611,1.611a.732.732,0,0,0,1.035,0l1.611-1.611a.732.732,0,0,1,.518-.214h4.879a3.017,3.017,0,0,0,3.017-3.017V99.017A3.017,3.017,0,0,0,202.068,96Z" transform="translate(-157.059 -81.944)" fill="#fb2b3a"/>
    <path id="Path_2285" data-name="Path 2285" d="M227.217,135.824l-1.98-1.98,1.98-1.98a1.885,1.885,0,0,0,0-2.666l-.647-.647a1.885,1.885,0,0,0-2.666,0l-1.98,1.98-1.98-1.98a1.885,1.885,0,0,0-2.666,0l-.647.647a1.885,1.885,0,0,0,0,2.666l1.98,1.98-1.98,1.98a1.885,1.885,0,0,0,0,2.666l.647.647a1.885,1.885,0,0,0,2.666,0l1.98-1.98,1.98,1.98a1.885,1.885,0,0,0,2.666,0l.647-.647A1.885,1.885,0,0,0,227.217,135.824Z" transform="translate(-184.441 -109.258)" fill="#fff"/>
    <g id="Group_272" data-name="Group 272" transform="translate(40.464 19.169)">
      <path id="Path_2286" data-name="Path 2286" d="M278.021,180.184l.647-.647a1.885,1.885,0,0,0,0-2.666l-.784-.784v.8a5.524,5.524,0,0,1-1.528,3.822A1.883,1.883,0,0,0,278.021,180.184Z" transform="translate(-276.355 -169.474)" fill="#f2fbff"/>
      <path id="Path_2287" data-name="Path 2287" d="M286.931,131.045q-.067-.067-.138-.125v4.222l.784-.784a1.885,1.885,0,0,0,0-2.666Z" transform="translate(-285.265 -130.92)" fill="#f2fbff"/>
    </g>
  </g>
</svg>
