<svg xmlns="http://www.w3.org/2000/svg" width="110" height="110" viewBox="0 0 110 110">
  <g id="Divorce_Settlement_Agreement" data-name="Divorce Settlement Agreement" transform="translate(-0.5)">
    <circle id="Ellipse_112" data-name="Ellipse 112" cx="55" cy="55" r="55" transform="translate(0.5)" fill="#f9ab3e"/>
    <g id="break-up" transform="translate(31.599 32.1)">
      <path id="Path_2863" data-name="Path 2863" d="M31.851,10.01V6.628a.766.766,0,0,0-.759-.759H28.4L29.78.9h3.727l-1.38,2.83a.635.635,0,0,0,.069.69.725.725,0,0,0,.621.345H35.37Z" transform="translate(-8.521)"/>
      <g id="Group_1154" data-name="Group 1154" transform="translate(0.9 7.255)">
        <path id="Path_2864" data-name="Path 2864" d="M8.147,42.885c0-4.072,1.242-4.072,2.485-4.072s2.485,0,2.485,4.072a29.7,29.7,0,0,1-.552,5.383h-3.8a24.8,24.8,0,0,1-.621-5.383ZM16.7,48.268H14.013a30.326,30.326,0,0,0,.552-5.383c0-3.934-1.173-5.59-3.934-5.59S6.7,38.882,6.7,42.885a29.7,29.7,0,0,0,.552,5.383H2.625L1.8,45.852a.241.241,0,0,0-.069-.138s-1.656-2.692.9-6.142a5.875,5.875,0,0,1,2.83-2.208A6.5,6.5,0,0,0,9.05,33.775a8.133,8.133,0,0,0,.828-3.658,1.269,1.269,0,0,0-.828-1.173A1.41,1.41,0,0,0,7.6,29.22a2.3,2.3,0,0,1-2,.9c-.9-.21-1.871-1.383-2.631-3.32A2.005,2.005,0,0,0,.9,25.562l.828-2.83A1.715,1.715,0,0,0,1.8,22.18V18.592a10.6,10.6,0,0,0,2.346.828c1.449.414,2.346.69,2.761,1.587a1.381,1.381,0,0,0,1.932.552.723.723,0,0,1,.828.069.638.638,0,0,1,.138.828l-.414.759a3.557,3.557,0,0,0,0,3.52,3.3,3.3,0,0,0,1.863,1.518.82.82,0,0,1,.621.759v.069a2.124,2.124,0,0,0,.414,1.311A12.485,12.485,0,0,1,14.7,36.328a17.062,17.062,0,0,0,.759,3.244,29.439,29.439,0,0,1,.966,4.417,28.875,28.875,0,0,1,.276,4.279Zm.966-5.866c-.207-1.1-.483-2.139-.759-3.175a16.047,16.047,0,0,1-.69-3.037,15,15,0,0,0-2.692-6.625.981.981,0,0,1-.138-.414v-.069a2.279,2.279,0,0,0-1.656-2.139,1.84,1.84,0,0,1-1.035-.9,2.2,2.2,0,0,1,0-2.07l.414-.759a2.2,2.2,0,0,0-.414-2.692,2.1,2.1,0,0,0-1.449-.552,1.948,1.948,0,0,0-1.035.276C7.456,18.8,6.007,18.385,4.627,18.04A8.121,8.121,0,0,1,2,16.935C2.487,15.486,4.489,11,9.8,11a13.133,13.133,0,0,1,4.072.759c.621.345,6.763,3.658,3.934,10.421-.345.552-2.485,4.348.069,7.937,1.8,2.554,2.211,8.972-.2,12.283Z" transform="translate(-0.9 -10.384)"/>
        <path id="Path_2865" data-name="Path 2865" d="M37.879,45.645c0-6.28,3.037-6.28,4.072-6.28s4.072,0,4.072,6.28c0,.759-.069,1.518-.138,2.416H38.017C37.948,47.163,37.879,46.335,37.879,45.645ZM55.2,25.217a.747.747,0,0,1-.345.276l-1.242.138a1.443,1.443,0,0,0-.9.483,1.2,1.2,0,0,0-.207.966l.345,2.07a2.23,2.23,0,0,1-3.106,2.416L46.092,29.91a.725.725,0,0,0-.621,1.311l2.416,1.1a8.316,8.316,0,0,1-.69,2.208,2,2,0,0,0,.345,2.208c5.176,5.452,6.073,9.662,6.211,11.249H47.334c.069-.828.138-1.656.138-2.416,0-6.418-3.037-7.8-5.521-7.8-2.554,0-5.521,1.38-5.521,7.8,0,.759.069,1.587.138,2.416H33.6V44.2a13.024,13.024,0,0,1,4.693-10.145l.138-.138a6.124,6.124,0,0,0,2.347-4.693V26.6a5.447,5.447,0,0,0-.9-3.106c-1.1-1.725-3.451-6.142-1.656-9.593,1.311-2.485,5.314-4.141,9.041-3.727,2.208.276,6.142,1.449,7.523,6.832a.7.7,0,0,1-.138.552c-.276.345-.9.483-1.794.483a3.418,3.418,0,0,0-1.863.483,20.441,20.441,0,0,0-2.208,1.587,2.374,2.374,0,0,1-1.449.552l-1.242-.069A3.449,3.449,0,0,0,42.71,22.8a3.314,3.314,0,0,0,.966,3.865l.069.069a.625.625,0,0,0,.966-.138.778.778,0,0,0-.138-1.1,2.034,2.034,0,0,1-.552-2.208,1.95,1.95,0,0,1,1.932-1.242l1.242.069a3.368,3.368,0,0,0,2.485-.9,11.532,11.532,0,0,1,2-1.449,2.025,2.025,0,0,1,1.1-.276,5.223,5.223,0,0,0,1.035-.069v2.208a1.3,1.3,0,0,0,.138.552l1.311,2.485a.628.628,0,0,1-.069.552Z" transform="translate(-11.032 -10.108)"/>
      </g>
    </g>
  </g>
</svg>
