<svg xmlns="http://www.w3.org/2000/svg" width="110" height="110" viewBox="0 0 110 110">
  <g id="Eviction" transform="translate(-0.5 -0.5)">
    <circle id="Ellipse_127" data-name="Ellipse 127" cx="55" cy="55" r="55" transform="translate(0.5 0.5)" fill="#f9ab3e"/>
    <g id="eviction-2" data-name="eviction" transform="translate(33.5 32.5)">
      <path id="Path_87434" data-name="Path 87434" d="M447.86,340.4h3.346V343H447.86Z" transform="translate(-408.974 -310.844)"/>
      <path id="Path_87435" data-name="Path 87435" d="M25.6,340.4h3.346V343H25.6Z" transform="translate(-23.377 -310.844)"/>
      <path id="Path_87436" data-name="Path 87436" d="M89.3,378.566h-17V370.4H64.14v12.295H97.457V370.4H89.3Z" transform="translate(-58.571 -338.239)"/>
      <path id="Path_87437" data-name="Path 87437" d="M97.457,106.175v9.347H89.3V109.3H86.025v-2.6A5.232,5.232,0,0,0,80.8,101.47a5.332,5.332,0,0,0-5.226,5.226v2.6H72.3v6.225H64.14v-9.347h.88L80.8,94.14l15.779,12.035Z" transform="translate(-58.571 -85.966)"/>
      <path id="Path_87438" data-name="Path 87438" d="M231.053,211.181a2.621,2.621,0,0,0-5.243,0v2.6h5.243Z" transform="translate(-206.204 -190.451)"/>
      <path id="Path_87439" data-name="Path 87439" d="M188.13,310.487h11.786V298.7H188.13Zm4.591-7.814h2.6V306.4h-2.6Z" transform="translate(-171.795 -272.765)"/>
      <path id="Path_87440" data-name="Path 87440" d="M44.455,17.6H38.886L22.228,4.9,5.569,17.6H0L22.228,0Z"/>
    </g>
  </g>
</svg>
