<svg xmlns="http://www.w3.org/2000/svg" width="110" height="110" viewBox="0 0 110 110">
  <g id="Family_And_Personal" data-name="Family And Personal" transform="translate(-0.5)">
    <circle id="Ellipse_109" data-name="Ellipse 109" cx="55" cy="55" r="55" transform="translate(0.5)" fill="#f9ab3e"/>
    <g id="Group_1139" data-name="Group 1139" transform="translate(0.5)">
      <g id="company" transform="translate(33 33)" opacity="0">
        <g id="Group_1135" data-name="Group 1135" transform="translate(28.618 14.362)">
          <g id="Group_1134" data-name="Group 1134">
            <path id="Path_2844" data-name="Path 2844" d="M345.35,193.422h-1.383V171.375a1.261,1.261,0,0,0-.882-1.219L331,166.11v29.906h14.35a1.3,1.3,0,1,0,0-2.594Zm-3.977,0h-2.594v-5.188h-2.594v5.188h-2.594v-6.484a1.284,1.284,0,0,1,1.3-1.3h5.188a1.284,1.284,0,0,1,1.3,1.3v6.484Zm-1.3-10.375h-5.187a1.3,1.3,0,1,1,0-2.594h5.188a1.3,1.3,0,1,1,0,2.594Zm0-5.188h-5.187a1.3,1.3,0,1,1,0-2.594h5.188a1.3,1.3,0,1,1,0,2.594Z" transform="translate(-330.998 -166.11)"/>
          </g>
        </g>
        <g id="Group_1137" data-name="Group 1137">
          <g id="Group_1136" data-name="Group 1136">
            <path id="Path_2845" data-name="Path 2845" d="M25.2,7.86,4.452.079A1.311,1.311,0,0,0,2.688,1.3V41.674H1.3a1.3,1.3,0,1,0,0,2.594H26.032V9.079A1.3,1.3,0,0,0,25.2,7.86ZM13.063,41.674H7.876V35.19a1.284,1.284,0,0,1,1.3-1.3h3.891v7.781ZM11.766,31.3H9.173a1.3,1.3,0,0,1,0-2.594h2.594a1.3,1.3,0,1,1,0,2.594Zm0-5.188H9.173a1.3,1.3,0,0,1,0-2.594h2.594a1.3,1.3,0,0,1,0,2.594Zm0-5.188H9.173a1.3,1.3,0,0,1,0-2.594h2.594a1.3,1.3,0,1,1,0,2.594Zm0-5.188H9.173a1.3,1.3,0,0,1,0-2.594h2.594a1.3,1.3,0,1,1,0,2.594Zm9.078,25.938H15.657V33.893h3.891a1.284,1.284,0,0,1,1.3,1.3v6.484ZM19.548,31.3H16.954a1.3,1.3,0,1,1,0-2.594h2.594a1.3,1.3,0,1,1,0,2.594Zm0-5.188H16.954a1.3,1.3,0,1,1,0-2.594h2.594a1.3,1.3,0,1,1,0,2.594Zm0-5.188H16.954a1.3,1.3,0,1,1,0-2.594h2.594a1.3,1.3,0,1,1,0,2.594Zm0-5.188H16.954a1.3,1.3,0,1,1,0-2.594h2.594a1.3,1.3,0,1,1,0,2.594Z" transform="translate(-0.008)"/>
          </g>
        </g>
      </g>
      <g id="family-silhouette" transform="translate(33 -5.878)">
        <g id="Group_1138" data-name="Group 1138" transform="translate(-0.001 42.749)">
          <path id="Path_2846" data-name="Path 2846" d="M278.214,56.913a3.782,3.782,0,1,0-.39-.02,3.782,3.782,0,0,0,.39.02Z" transform="translate(-250.441 -48.776)"/>
          <path id="Path_2847" data-name="Path 2847" d="M425.422,192.65a2.439,2.439,0,1,0-1.258-.349,2.439,2.439,0,0,0,1.258.349Z" transform="translate(-386.005 -175.094)"/>
          <path id="Path_2848" data-name="Path 2848" d="M44,148.3c0-.278.006-.557-.01-.834s-.043-.566-.067-.85a10.955,10.955,0,0,0-.315-1.654,6.458,6.458,0,0,0-.269-.808,5.774,5.774,0,0,0-2.161-2.793,4.35,4.35,0,0,0-.741-.439,2.406,2.406,0,0,0-.963-.221,2.379,2.379,0,0,0-1.158.314,5.461,5.461,0,0,0-.82.6q-.409.337-.843.642a4.63,4.63,0,0,1-1.77.886,21.321,21.321,0,0,0-.2-3.432,15.872,15.872,0,0,0-.319-1.663,14.62,14.62,0,0,0-.512-1.579,9.792,9.792,0,0,0-1.54-2.691A8.063,8.063,0,0,0,30.2,131.95a4.769,4.769,0,0,0-2.9-.724,5.37,5.37,0,0,0-2.635,1.212,9.243,9.243,0,0,0-2.615,3.09,8.122,8.122,0,0,0-3.317-4.044,5.841,5.841,0,0,0-2.816-.853,5.754,5.754,0,0,0-2.963.872,8.372,8.372,0,0,0-3.544,4.732,16.3,16.3,0,0,0-.55,6.268q.025.308.058.616a4.82,4.82,0,0,1-1.409-.673,10.04,10.04,0,0,1-1.33-.976,2.321,2.321,0,0,0-1.209-.6,2.423,2.423,0,0,0-1.057.1,5.659,5.659,0,0,0-3.547,4.158,10.892,10.892,0,0,0-.3,1.66C.012,147.361,0,147.928,0,148.5a.816.816,0,0,0,.18.58.728.728,0,0,0,.518.25.742.742,0,0,0,.749-.7c.049-.487.092-.972.18-1.454a9.757,9.757,0,0,1,.385-1.455l-.141,2.606-.018.332A2.759,2.759,0,0,0,2,149.709q.031.089.067.175a.722.722,0,0,1,.08.17l.024.462.143,2.77.172,3.317q.03.572.059,1.144a4.348,4.348,0,0,0,.033.515.845.845,0,0,0,1.662.022,4.346,4.346,0,0,0,.039-.627l.147-3.04q.064-1.33.129-2.661,0-.086.008-.173l.1,1.925.171,3.3.052,1.012a1.052,1.052,0,0,0,.009.168.845.845,0,0,0,1.655.163,1.174,1.174,0,0,0,.036-.275l.038-.795q.074-1.541.149-3.082.075-1.559.151-3.117.02-.419.041-.839A.32.32,0,0,1,7,150.082a2.735,2.735,0,0,0,.31-1.418l-.131-2.413-.105-1.943a5.785,5.785,0,0,0,1.562.427,2.765,2.765,0,0,0,.817-.025,1.978,1.978,0,0,0,.366-.11c.03-.013.059-.027.088-.042l.073.009a1.074,1.074,0,0,0,.168,0,1.121,1.121,0,0,0,1.038-1.19q-.017-.4-.021-.8a16.9,16.9,0,0,1,.24-3.156,9.708,9.708,0,0,1,1.018-3.017l-.222,1.83-.4,3.33-.147,1.214a7.732,7.732,0,0,0-.075.837,4.385,4.385,0,0,0,.234,1.468,4.276,4.276,0,0,0,.3.683q.087.158.188.308c.016.024.016.016.017.03l.018.384.1,2.217L12.6,152l.158,3.344.112,2.37.024.5a1.331,1.331,0,0,0,.933,1.214,1.31,1.31,0,0,0,1.658-1.184q.009-.206.019-.413.058-1.287.115-2.575.077-1.707.153-3.413l.11-2.458.014-.317.068,1.47.15,3.215.148,3.166.047,1a2.791,2.791,0,0,0,.056.586,1.308,1.308,0,0,0,1.881.808,1.341,1.341,0,0,0,.67-1.134l.074-1.615.139-3.04q.079-1.722.157-3.445.065-1.415.129-2.83.027-.6.055-1.2c0-.017.038-.058.047-.073q.047-.074.09-.149.1-.164.175-.335a4.278,4.278,0,0,0,.387-2.178c-.018-.213-.049-.425-.074-.637q-.179-1.481-.359-2.962l-.347-2.862-.045-.374a9.586,9.586,0,0,1,.965,2.886,15.516,15.516,0,0,1,.228,3.085c-.006.281,0,.562,0,.843a1.369,1.369,0,0,0,.063.536,1.134,1.134,0,0,0,.862.723,1.156,1.156,0,0,0,1.059-.4,2.061,2.061,0,0,0,.313-1.249,17.02,17.02,0,0,1,.4-2.484A11.992,11.992,0,0,1,24,138.073v.638a1.291,1.291,0,0,1,0,.259l-.109.524-.531,2.554-.7,3.358-.566,2.72-.139.67a1.339,1.339,0,0,0-.029.168.739.739,0,0,0,.738.788h1.577s.006.142.009.207l.116,2.4q.082,1.7.165,3.4.055,1.131.109,2.262a.892.892,0,0,0,.007.137,1.324,1.324,0,0,0,.464.931,1.3,1.3,0,0,0,1.114.289,1.34,1.34,0,0,0,.9-.69,1.843,1.843,0,0,0,.157-.791l.052-1,.166-3.212.158-3.046q.021-.4.041-.793c0-.05-.016-.1.039-.1.118,0,.114-.021.119.078q.051,1.051.1,2.1l.164,3.389q.062,1.27.123,2.54a2.107,2.107,0,0,0,.109.721,1.31,1.31,0,0,0,2.523-.417.739.739,0,0,1,.006-.115l.042-.821q.079-1.535.159-3.07.083-1.6.165-3.193.025-.487.051-.975c0-.072.011-.237.011-.237h1.532a.739.739,0,0,0,.719-.874c-.006-.032-.013-.063-.019-.1l-.386-1.9-.659-3.234-.635-3.118-.315-1.548a1.2,1.2,0,0,1,0-.23v-.521a12.165,12.165,0,0,1,.525,1.571,14.557,14.557,0,0,1,.354,1.674q.123.845.194,1.692a1.8,1.8,0,0,0,.11.6,1.14,1.14,0,0,0,1.115.673c.077-.006.134.052.2.088a1.685,1.685,0,0,0,.243.1,1.925,1.925,0,0,0,.538.1,4.958,4.958,0,0,0,2.163-.5v1.64l-.67,2.847-.686,2.915c-.054.229-.175.525-.05.747.146.261.419.239.672.239h.785a.59.59,0,0,1,.11,0v.065l.017.359.066,1.367.153,3.171a4.762,4.762,0,0,0,.043.693.845.845,0,0,0,1.663-.02,5.836,5.836,0,0,0,.041-.682q.038-.729.075-1.459.08-1.539.159-3.079l.018-.354v-.061c0,.005.084-.022.085.009q.019.383.037.765.078,1.621.157,3.243l.06,1.246.013.259a.865.865,0,0,0,.423.7.843.843,0,0,0,1.067-.188.9.9,0,0,0,.2-.549l.048-.921.17-3.279.058-1.125c0-.009.007-.164.009-.164h.625a1.238,1.238,0,0,0,.683-.082A.488.488,0,0,0,43.2,152l-.183-.836L42.328,148c-.155-.707-.482-2.134-.482-2.134v-.543a10.515,10.515,0,0,1,.7,3.272.816.816,0,0,0,.19.493A.722.722,0,0,0,44,148.6Z" transform="translate(0.001 -122.951)"/>
          <path id="Path_2849" data-name="Path 2849" d="M26.945,192.65a2.439,2.439,0,1,0-1.257-.349,2.439,2.439,0,0,0,1.257.349Z" transform="translate(-22.363 -175.094)"/>
          <path id="Path_2850" data-name="Path 2850" d="M142.582,50.224a3.744,3.744,0,1,0-.1,0Z" transform="translate(-126.705 -42.749)"/>
        </g>
      </g>
    </g>
  </g>
</svg>
