<svg xmlns="http://www.w3.org/2000/svg" width="110" height="110" viewBox="0 0 110 110">
  <g id="Health_And_Medical" data-name="Health And Medical" transform="translate(-0.5)">
    <circle id="Ellipse_115" data-name="Ellipse 115" cx="55" cy="55" r="55" transform="translate(0.5)" fill="#f9ab3e"/>
    <g id="company" transform="translate(33 33)" opacity="0">
      <g id="Group_1172" data-name="Group 1172" transform="translate(28.618 14.362)">
        <g id="Group_1171" data-name="Group 1171">
          <path id="Path_2876" data-name="Path 2876" d="M345.35,193.422h-1.383V171.375a1.261,1.261,0,0,0-.882-1.219L331,166.11v29.906h14.35a1.3,1.3,0,1,0,0-2.594Zm-3.977,0h-2.594v-5.188h-2.594v5.188h-2.594v-6.484a1.284,1.284,0,0,1,1.3-1.3h5.188a1.284,1.284,0,0,1,1.3,1.3v6.484Zm-1.3-10.375h-5.187a1.3,1.3,0,1,1,0-2.594h5.188a1.3,1.3,0,1,1,0,2.594Zm0-5.188h-5.187a1.3,1.3,0,1,1,0-2.594h5.188a1.3,1.3,0,1,1,0,2.594Z" transform="translate(-330.998 -166.11)"/>
        </g>
      </g>
      <g id="Group_1174" data-name="Group 1174">
        <g id="Group_1173" data-name="Group 1173">
          <path id="Path_2877" data-name="Path 2877" d="M25.2,7.86,4.452.079A1.311,1.311,0,0,0,2.688,1.3V41.674H1.3a1.3,1.3,0,1,0,0,2.594H26.032V9.079A1.3,1.3,0,0,0,25.2,7.86ZM13.063,41.674H7.876V35.19a1.284,1.284,0,0,1,1.3-1.3h3.891v7.781ZM11.766,31.3H9.173a1.3,1.3,0,0,1,0-2.594h2.594a1.3,1.3,0,1,1,0,2.594Zm0-5.188H9.173a1.3,1.3,0,0,1,0-2.594h2.594a1.3,1.3,0,0,1,0,2.594Zm0-5.188H9.173a1.3,1.3,0,0,1,0-2.594h2.594a1.3,1.3,0,1,1,0,2.594Zm0-5.188H9.173a1.3,1.3,0,0,1,0-2.594h2.594a1.3,1.3,0,1,1,0,2.594Zm9.078,25.938H15.657V33.893h3.891a1.284,1.284,0,0,1,1.3,1.3v6.484ZM19.548,31.3H16.954a1.3,1.3,0,1,1,0-2.594h2.594a1.3,1.3,0,1,1,0,2.594Zm0-5.188H16.954a1.3,1.3,0,1,1,0-2.594h2.594a1.3,1.3,0,1,1,0,2.594Zm0-5.188H16.954a1.3,1.3,0,1,1,0-2.594h2.594a1.3,1.3,0,1,1,0,2.594Zm0-5.188H16.954a1.3,1.3,0,1,1,0-2.594h2.594a1.3,1.3,0,1,1,0,2.594Z" transform="translate(-0.008)"/>
        </g>
      </g>
    </g>
    <g id="hospital" transform="translate(33.5 33)">
      <g id="Group_1176" data-name="Group 1176" transform="translate(18.45 5.421)">
        <g id="Group_1175" data-name="Group 1175">
          <path id="Path_2878" data-name="Path 2878" d="M217.558,64.623h-1.312V63.312a1.312,1.312,0,0,0-2.623,0v1.312h-1.312a1.312,1.312,0,1,0,0,2.623h1.312v1.312a1.312,1.312,0,1,0,2.623,0V67.246h1.312a1.312,1.312,0,0,0,0-2.623Z" transform="translate(-211 -62)"/>
        </g>
      </g>
      <g id="Group_1178" data-name="Group 1178" transform="translate(0 18.538)">
        <g id="Group_1177" data-name="Group 1177">
          <path id="Path_2879" data-name="Path 2879" d="M3.935,214.623H5.246V212H3.935A3.939,3.939,0,0,0,0,215.935v20.986a1.311,1.311,0,0,0,1.312,1.312H5.246V227.739H2.623v-2.623H5.246v-2.623H2.623V219.87H5.246v-2.623H2.623v-1.312a1.313,1.313,0,0,1,1.312-1.312Z" transform="translate(0 -212)"/>
        </g>
      </g>
      <g id="Group_1180" data-name="Group 1180" transform="translate(39.524 18.538)">
        <g id="Group_1179" data-name="Group 1179">
          <path id="Path_2880" data-name="Path 2880" d="M453.312,212H452v2.623h1.312a1.313,1.313,0,0,1,1.312,1.312v1.312H452v2.623h2.623v2.623H452v2.623h2.623v2.623H452v10.493h3.935a1.311,1.311,0,0,0,1.312-1.312V215.935A3.939,3.939,0,0,0,453.312,212Z" transform="translate(-452 -212)"/>
        </g>
      </g>
      <g id="Group_1182" data-name="Group 1182" transform="translate(7.87)">
        <g id="Group_1181" data-name="Group 1181">
          <path id="Path_2881" data-name="Path 2881" d="M115.1,5.421h-1.4V1.312A1.311,1.311,0,0,0,112.385,0H96.646a1.311,1.311,0,0,0-1.312,1.312v4.11h-1.4A3.939,3.939,0,0,0,90,9.356V44.77h10.58V39.524h7.87V44.77h10.58V9.356a3.939,3.939,0,0,0-3.93-3.935ZM103.2,31.654H97.957V29.031H103.2Zm0-5.246H97.957V23.784H103.2Zm0-5.246H97.957V18.538H103.2Zm7.87,10.493h-5.246V29.031h5.246Zm0-5.246h-5.246V23.784h5.246Zm0-5.246h-5.246V18.538h5.246Zm0-14.428v9.181H97.957V2.623h13.116Z" transform="translate(-90)"/>
        </g>
      </g>
    </g>
  </g>
</svg>
