<svg xmlns="http://www.w3.org/2000/svg" width="110" height="110" viewBox="0 0 110 110">
  <g id="Incorporation" transform="translate(-0.5)">
    <circle id="Ellipse_120" data-name="Ellipse 120" cx="55" cy="55" r="55" transform="translate(0.5)" fill="#f9ab3e"/>
    <g id="company" transform="translate(33 33)" opacity="0">
      <g id="Group_1208" data-name="Group 1208" transform="translate(28.618 14.362)">
        <g id="Group_1207" data-name="Group 1207">
          <path id="Path_2890" data-name="Path 2890" d="M345.35,193.422h-1.383V171.375a1.261,1.261,0,0,0-.882-1.219L331,166.11v29.906h14.35a1.3,1.3,0,1,0,0-2.594Zm-3.977,0h-2.594v-5.188h-2.594v5.188h-2.594v-6.484a1.284,1.284,0,0,1,1.3-1.3h5.188a1.284,1.284,0,0,1,1.3,1.3v6.484Zm-1.3-10.375h-5.187a1.3,1.3,0,1,1,0-2.594h5.188a1.3,1.3,0,1,1,0,2.594Zm0-5.188h-5.187a1.3,1.3,0,1,1,0-2.594h5.188a1.3,1.3,0,1,1,0,2.594Z" transform="translate(-330.998 -166.11)"/>
        </g>
      </g>
      <g id="Group_1210" data-name="Group 1210">
        <g id="Group_1209" data-name="Group 1209">
          <path id="Path_2891" data-name="Path 2891" d="M25.2,7.86,4.452.079A1.311,1.311,0,0,0,2.688,1.3V41.674H1.3a1.3,1.3,0,1,0,0,2.594H26.032V9.079A1.3,1.3,0,0,0,25.2,7.86ZM13.063,41.674H7.876V35.19a1.284,1.284,0,0,1,1.3-1.3h3.891v7.781ZM11.766,31.3H9.173a1.3,1.3,0,0,1,0-2.594h2.594a1.3,1.3,0,1,1,0,2.594Zm0-5.188H9.173a1.3,1.3,0,0,1,0-2.594h2.594a1.3,1.3,0,0,1,0,2.594Zm0-5.188H9.173a1.3,1.3,0,0,1,0-2.594h2.594a1.3,1.3,0,1,1,0,2.594Zm0-5.188H9.173a1.3,1.3,0,0,1,0-2.594h2.594a1.3,1.3,0,1,1,0,2.594Zm9.078,25.938H15.657V33.893h3.891a1.284,1.284,0,0,1,1.3,1.3v6.484ZM19.548,31.3H16.954a1.3,1.3,0,1,1,0-2.594h2.594a1.3,1.3,0,1,1,0,2.594Zm0-5.188H16.954a1.3,1.3,0,1,1,0-2.594h2.594a1.3,1.3,0,1,1,0,2.594Zm0-5.188H16.954a1.3,1.3,0,1,1,0-2.594h2.594a1.3,1.3,0,1,1,0,2.594Zm0-5.188H16.954a1.3,1.3,0,1,1,0-2.594h2.594a1.3,1.3,0,1,1,0,2.594Z" transform="translate(-0.008)"/>
        </g>
      </g>
    </g>
    <g id="incorporation-2" data-name="incorporation" transform="translate(33.5 33)">
      <path id="Path_2892" data-name="Path 2892" d="M0,313.47a3.017,3.017,0,0,0,3.014,3.014h.327v-6.028H3.014A3.017,3.017,0,0,0,0,313.47Z" transform="translate(0 -283.615)"/>
      <path id="Path_2893" data-name="Path 2893" d="M338.9,310.457h-.327v6.028h.327a3.014,3.014,0,1,0,0-6.028Z" transform="translate(-309.296 -283.615)"/>
      <path id="Path_2894" data-name="Path 2894" d="M57.923,132.179a12.409,12.409,0,0,1-3.3-5.146,4.554,4.554,0,0,0-.587-.038H47.322a9.075,9.075,0,0,1-6.664-2.916h-1.7a4.05,4.05,0,0,0,0,8.1Z" transform="translate(-31.889 -113.35)"/>
      <path id="Path_2895" data-name="Path 2895" d="M295.4,0a9.786,9.786,0,1,0,9.786,9.786A9.786,9.786,0,0,0,295.4,0Zm5.833,11.083H296.7V15.62h-2.594V11.083H289.57V8.489h4.536V3.953H296.7V8.489h4.536v2.594Z" transform="translate(-260.925)"/>
      <path id="Path_2896" data-name="Path 2896" d="M68.642,246.629v12.438a10.371,10.371,0,1,0,20.741.133V246.728H69.776A6.655,6.655,0,0,1,68.642,246.629Zm15.131,3.338a3.5,3.5,0,0,1,3.493,3.493H84.673a.9.9,0,0,0-1.8,0H80.28a3.5,3.5,0,0,1,3.493-3.493Zm-1.663,9.618H84.7a5.69,5.69,0,0,1-11.38,0h2.594a3.1,3.1,0,1,0,6.192,0Zm-7.856-9.618a3.5,3.5,0,0,1,3.493,3.493H75.154a.9.9,0,0,0-1.8,0H70.761a3.5,3.5,0,0,1,3.493-3.493Z" transform="translate(-62.707 -225.306)"/>
    </g>
  </g>
</svg>
