<svg xmlns="http://www.w3.org/2000/svg" width="110" height="110" viewBox="0 0 110 110">
  <g id="Intent_To_Purchase_Real_Estate" data-name="Intent To Purchase Real Estate" transform="translate(-0.5)">
    <circle id="Ellipse_107" data-name="Ellipse 107" cx="55" cy="55" r="55" transform="translate(0.5)" fill="#f9ab3e"/>
    <g id="Group_1122" data-name="Group 1122">
      <g id="company" transform="translate(33.5 33)" opacity="0">
        <g id="Group_1119" data-name="Group 1119" transform="translate(28.618 14.362)">
          <g id="Group_1118" data-name="Group 1118">
            <path id="Path_2833" data-name="Path 2833" d="M345.35,193.422h-1.383V171.375a1.261,1.261,0,0,0-.882-1.219L331,166.11v29.906h14.35a1.3,1.3,0,1,0,0-2.594Zm-3.977,0h-2.594v-5.188h-2.594v5.188h-2.594v-6.484a1.284,1.284,0,0,1,1.3-1.3h5.188a1.284,1.284,0,0,1,1.3,1.3v6.484Zm-1.3-10.375h-5.187a1.3,1.3,0,1,1,0-2.594h5.188a1.3,1.3,0,1,1,0,2.594Zm0-5.188h-5.187a1.3,1.3,0,1,1,0-2.594h5.188a1.3,1.3,0,1,1,0,2.594Z" transform="translate(-330.998 -166.11)"/>
          </g>
        </g>
        <g id="Group_1121" data-name="Group 1121">
          <g id="Group_1120" data-name="Group 1120">
            <path id="Path_2834" data-name="Path 2834" d="M25.2,7.86,4.452.079A1.311,1.311,0,0,0,2.688,1.3V41.674H1.3a1.3,1.3,0,1,0,0,2.594H26.032V9.079A1.3,1.3,0,0,0,25.2,7.86ZM13.063,41.674H7.876V35.19a1.284,1.284,0,0,1,1.3-1.3h3.891v7.781ZM11.766,31.3H9.173a1.3,1.3,0,0,1,0-2.594h2.594a1.3,1.3,0,1,1,0,2.594Zm0-5.188H9.173a1.3,1.3,0,0,1,0-2.594h2.594a1.3,1.3,0,0,1,0,2.594Zm0-5.188H9.173a1.3,1.3,0,0,1,0-2.594h2.594a1.3,1.3,0,1,1,0,2.594Zm0-5.188H9.173a1.3,1.3,0,0,1,0-2.594h2.594a1.3,1.3,0,1,1,0,2.594Zm9.078,25.938H15.657V33.893h3.891a1.284,1.284,0,0,1,1.3,1.3v6.484ZM19.548,31.3H16.954a1.3,1.3,0,1,1,0-2.594h2.594a1.3,1.3,0,1,1,0,2.594Zm0-5.188H16.954a1.3,1.3,0,1,1,0-2.594h2.594a1.3,1.3,0,1,1,0,2.594Zm0-5.188H16.954a1.3,1.3,0,1,1,0-2.594h2.594a1.3,1.3,0,1,1,0,2.594Zm0-5.188H16.954a1.3,1.3,0,1,1,0-2.594h2.594a1.3,1.3,0,1,1,0,2.594Z" transform="translate(-0.008)"/>
          </g>
        </g>
      </g>
      <g id="purchase" transform="translate(33.501 29.999)">
        <path id="Path_2835" data-name="Path 2835" d="M64.723,355.287a3.712,3.712,0,0,1-1.349-.253l-10.491-4.072V357.8a1.3,1.3,0,0,0,.857,1.22l15.53,5.594v-13.46l-1.324,2.279A3.74,3.74,0,0,1,64.723,355.287Z" transform="translate(-48.312 -317.877)"/>
        <path id="Path_2836" data-name="Path 2836" d="M276.729,354.128a3.741,3.741,0,0,1-3.224-1.856l-1.078-1.857v13.051l15.567-5.607a1.3,1.3,0,0,0,.857-1.22v-6.947l-10.773,4.182A3.712,3.712,0,0,1,276.729,354.128Z" transform="translate(-248.874 -316.718)"/>
        <path id="Path_2837" data-name="Path 2837" d="M98.033,156.126a11.414,11.414,0,0,1-1.84-3.164l-3.456,1.245Z" transform="translate(-84.72 -136.996)"/>
        <path id="Path_2838" data-name="Path 2838" d="M363.338,153.845l-3.466-1.27a11.414,11.414,0,0,1-1.853,3.2Z" transform="translate(-327.066 -136.642)"/>
        <path id="Path_2839" data-name="Path 2839" d="M44.1,196.782l-4.3-7.512a1.221,1.221,0,0,0-1.475-.541L22.133,194.6,5.94,188.729a1.221,1.221,0,0,0-1.475.541l-4.29,7.487a1.263,1.263,0,0,0-.175.681,1.222,1.222,0,0,0,.779,1.089l15.191,5.9a1.22,1.22,0,0,0,1.5-.525l4.666-8.348L26.8,203.9a1.22,1.22,0,0,0,1.5.525l15.191-5.9a1.221,1.221,0,0,0,.618-1.745Z" transform="translate(0 -169.604)"/>
        <path id="Path_2840" data-name="Path 2840" d="M161.955,20.8a8.9,8.9,0,1,0-8.9-8.9,8.9,8.9,0,0,0,8.9,8.9Zm-3.684-7.538a1.3,1.3,0,1,1,1.834-1.834l.732.732,3.011-3.011a1.3,1.3,0,0,1,1.834,1.834l-3.928,3.928a1.3,1.3,0,0,1-1.834,0Z" transform="translate(-139.822)"/>
      </g>
    </g>
  </g>
</svg>
