<svg xmlns="http://www.w3.org/2000/svg" width="110" height="110" viewBox="0 0 110 110">
  <g id="Intellectual_Property_And_Licensing" data-name="Intellectual Property And Licensing" transform="translate(-0.5 -0.5)">
    <circle id="Ellipse_123" data-name="Ellipse 123" cx="55" cy="55" r="55" transform="translate(0.5 0.5)" fill="#f9ab3e"/>
    <g id="license" transform="translate(32.456 33.5)">
      <path id="Path_87423" data-name="Path 87423" d="M100.359,109.487a4.335,4.335,0,0,1,4.33-4.33,1.7,1.7,0,0,0,1.212-.5,4.335,4.335,0,0,1,6.124,0h0a1.7,1.7,0,0,0,1.212.5,4.335,4.335,0,0,1,4.33,4.33,1.707,1.707,0,0,0,.5,1.213,4.335,4.335,0,0,1,.787,1.073h.661a4.774,4.774,0,0,1,3.278-3.278V98.278A4.774,4.774,0,0,1,119.518,95h-21.2a4.774,4.774,0,0,1-3.278,3.278v10.216a4.774,4.774,0,0,1,3.278,3.278h.748a4.335,4.335,0,0,1,.787-1.073A1.707,1.707,0,0,0,100.359,109.487Zm2.379-11.547h12.45a1.3,1.3,0,0,1,0,2.594h-12.45a1.3,1.3,0,0,1,0-2.594Z" transform="translate(-86.787 -86.787)"/>
      <path id="Path_87424" data-name="Path 87424" d="M168.06,234.293a1.717,1.717,0,0,0,1.714,1.714,4.3,4.3,0,0,1,3.062,1.268,1.716,1.716,0,0,0,2.424,0,4.3,4.3,0,0,1,3.062-1.268,1.717,1.717,0,0,0,1.714-1.714,4.3,4.3,0,0,1,1.268-3.062,1.713,1.713,0,0,0,0-2.424,4.3,4.3,0,0,1-1.268-3.062,1.717,1.717,0,0,0-1.714-1.714,4.3,4.3,0,0,1-3.062-1.268,1.716,1.716,0,0,0-2.424,0,4.3,4.3,0,0,1-3.062,1.268,1.717,1.717,0,0,0-1.714,1.714,4.3,4.3,0,0,1-1.268,3.062,1.713,1.713,0,0,0,0,2.424A4.3,4.3,0,0,1,168.06,234.293Zm5.989-8.338a4.063,4.063,0,1,1-4.063,4.063A4.068,4.068,0,0,1,174.049,225.955Z" transform="translate(-151.872 -203.044)"/>
      <ellipse id="Ellipse_3244" data-name="Ellipse 3244" cx="1.714" cy="1.285" rx="1.714" ry="1.285" transform="translate(20.463 25.526)"/>
      <path id="Path_87425" data-name="Path 87425" d="M43.013,0H1.341a1.3,1.3,0,0,0-1.3,1.3V31.816a1.3,1.3,0,0,0,1.3,1.3H14a4.3,4.3,0,0,1-.423-1.864,1.707,1.707,0,0,0-.5-1.213,4.3,4.3,0,0,1-1.227-2.456H10.419a1.3,1.3,0,0,1-1.3-1.3,2.163,2.163,0,0,0-2.161-2.161,1.3,1.3,0,0,1-1.3-1.3V10.375a1.3,1.3,0,0,1,1.3-1.3A2.163,2.163,0,0,0,9.122,6.917a1.3,1.3,0,0,1,1.3-1.3h23.43a1.3,1.3,0,0,1,1.3,1.3,2.163,2.163,0,0,0,2.161,2.161,1.3,1.3,0,0,1,1.3,1.3v12.45a1.3,1.3,0,0,1-1.3,1.3,2.163,2.163,0,0,0-2.161,2.161,1.3,1.3,0,0,1-1.3,1.3H32.51a4.3,4.3,0,0,1-1.227,2.456,1.707,1.707,0,0,0-.5,1.213,4.3,4.3,0,0,1-.423,1.864H43.013a1.3,1.3,0,0,0,1.3-1.3V1.3A1.3,1.3,0,0,0,43.013,0Z"/>
      <path id="Path_87426" data-name="Path 87426" d="M202.713,409.8c-1.425,0-1.641,1.769-4.274,1.769s-2.856-1.769-4.274-1.769a4.34,4.34,0,0,1-1.172-.162c0,7.912-.029,7.619.052,7.916a1.291,1.291,0,0,0,.95.9c.507.111.334.1,4.445-1.357,4.051,1.433,3.915,1.444,4.347,1.376a1.3,1.3,0,0,0,1.084-1.086c.024-.133.016-.006.016-7.748A4.34,4.34,0,0,1,202.713,409.8Z" transform="translate(-176.261 -374.224)"/>
    </g>
  </g>
</svg>
