<svg xmlns="http://www.w3.org/2000/svg" width="110" height="110" viewBox="0 0 110 110">
  <g id="Labor_And_Employment" data-name="Labor And Employment" transform="translate(-0.5 -0.5)">
    <circle id="Ellipse_124" data-name="Ellipse 124" cx="55" cy="55" r="55" transform="translate(0.5 0.5)" fill="#f9ab3e"/>
    <g id="self-employed" transform="translate(31.5 31.5)">
      <path id="Path_87427" data-name="Path 87427" d="M50.193,37v-.8a3.2,3.2,0,0,0-3.2-3.2H42.2A3.2,3.2,0,0,0,39,36.2V37h1.6v-.8a1.6,1.6,0,0,1,1.6-1.6h4.8a1.6,1.6,0,0,1,1.6,1.6V37Z" transform="translate(-7.419 -6.216)"/>
      <path id="Path_87428" data-name="Path 87428" d="M27.362,29.452A5.211,5.211,0,0,0,29.574,26L30,23.462a.8.8,0,0,1,.788-.668,1.6,1.6,0,0,0,0-3.2.8.8,0,0,1-.8-.8,2.225,2.225,0,0,0-1.568-2.331,18.211,18.211,0,0,1-6.962-2.386.475.475,0,0,0-.528,0,18.206,18.206,0,0,1-6.964,2.386A2.225,2.225,0,0,0,12.4,18.8a.8.8,0,0,1-.8.8,1.6,1.6,0,0,0,0,3.2.8.8,0,0,1,.788.668L12.812,26a5.211,5.211,0,0,0,2.212,3.455c.233.16.48.333.744.518,1.529,1.077,3.431,2.418,5.425,2.418s3.9-1.342,5.425-2.418C26.88,29.784,27.129,29.609,27.362,29.452Z" transform="translate(-1.604 -2.406)"/>
      <path id="Path_87429" data-name="Path 87429" d="M20,38.013a3.2,3.2,0,1,0,6.4,0,7.618,7.618,0,0,1-3.2.789,7.617,7.617,0,0,1-3.2-.789Z" transform="translate(-3.609 -7.221)"/>
      <rect id="Rectangle_24868" data-name="Rectangle 24868" width="19" height="6" rx="1" transform="translate(28 32)"/>
      <path id="Path_87430" data-name="Path 87430" d="M46.4,50.6a.8.8,0,0,0,.8-.8V49H44v.8a.8.8,0,0,0,.8.8Z" transform="translate(-8.421 -9.424)"/>
      <path id="Path_87431" data-name="Path 87431" d="M2.8,54.256H26.132a2.371,2.371,0,0,1-.147-.8V40.665a2.364,2.364,0,0,1,.126-.728l-1.848-.607a4.792,4.792,0,0,1-9.348,0L7.949,41.617C4.113,42.878,2,46.8,2,52.658v.8a.8.8,0,0,0,.8.8Z" transform="translate(0 -7.485)"/>
      <path id="Path_87432" data-name="Path 87432" d="M10,13.193V16.03a3.168,3.168,0,0,1,.854-.352,3.646,3.646,0,0,1,2.886-3.2,16.6,16.6,0,0,0,6.337-2.159,2.079,2.079,0,0,1,2.232,0,16.615,16.615,0,0,0,6.336,2.159,3.646,3.646,0,0,1,2.887,3.2,3.168,3.168,0,0,1,.854.352V13.193a11.193,11.193,0,1,0-22.386,0Z" transform="translate(-1.604)"/>
      <path id="Path_87433" data-name="Path 87433" d="M53.188,48.816a2.371,2.371,0,0,1-.8.147h-5.6v.8a2.4,2.4,0,0,1-2.4,2.4h-1.6a2.4,2.4,0,0,1-2.4-2.4v-.8H34.8a2.371,2.371,0,0,1-.8-.147v6.543a.8.8,0,0,0,.8.8H52.388a.8.8,0,0,0,.8-.8Z" transform="translate(-6.416 -9.387)"/>
    </g>
  </g>
</svg>
