<svg xmlns="http://www.w3.org/2000/svg" width="110" height="110" viewBox="0 0 110 110">
  <g id="Lease_Agreement" data-name="Lease Agreement" transform="translate(-2741 1214)">
    <circle id="Ellipse_104" data-name="Ellipse 104" cx="55" cy="55" r="55" transform="translate(2741 -1214)" fill="#f9ab3e"/>
    <path id="business" d="M15.673,43.419a1.187,1.187,0,0,1-.911-.181,1.214,1.214,0,0,1-.334-1.684l.547-.816.547-.816a1.218,1.218,0,0,1,.775-.516,1.5,1.5,0,0,1,.241-.022,1.216,1.216,0,0,1,1,1.892l-1.093,1.632a1.194,1.194,0,0,1-.775.512Zm3.44.811a1.213,1.213,0,0,1-.333-1.684l1.094-1.631a1.216,1.216,0,1,1,2.02,1.354L20.8,43.9a1.217,1.217,0,0,1-1.687.331Zm4.841.613a.851.851,0,0,1-.646-.123.866.866,0,0,1-.364-.551.847.847,0,0,1,.128-.644l.9-1.336a.86.86,0,1,1,1.43.957l-.9,1.336a.848.848,0,0,1-.548.362Zm16.6-9.653a1.608,1.608,0,0,0-.691-2.042,28.288,28.288,0,0,0-9.343-4.687l-7.443,2.46a2.948,2.948,0,0,1-.946.163c-1.925,0-2.837-2.183-3.212-3.078a.747.747,0,0,1,.13-.785,22.341,22.341,0,0,1,6.375-4.987,20.807,20.807,0,0,0-2.036-.666A6.451,6.451,0,0,0,19.1,22.926a.808.808,0,0,1-.194.093,4.026,4.026,0,0,1-1.152.159,6.366,6.366,0,0,1-1.9-.322L12.517,33.127a2.107,2.107,0,0,1-.339.64,2.5,2.5,0,0,0,.969,1.138.554.554,0,0,1,.073.049,2.707,2.707,0,0,1,3.255,2.116,2.771,2.771,0,0,1,.038.82,2.705,2.705,0,0,1,2.536,1.71,2.71,2.71,0,0,1,3.345-.256,2.666,2.666,0,0,1,1.038,1.332,2.356,2.356,0,0,1,3.325,3.113l1.645.873a1.11,1.11,0,0,0,1.04-1.962l-2.436-1.292a.749.749,0,0,1,.7-1.323l2.436,1.3L31.291,42a1.473,1.473,0,0,0,1.383-2.6h0l-2.463-1.31a.747.747,0,1,1,.7-1.318l3.923,2.086a1.473,1.473,0,1,0,1.384-2.6l-2.283-1.213L32.3,34.164a.747.747,0,1,1,.7-1.318l3.922,2.085,1.639.869a1.48,1.48,0,0,0,1.993-.609Zm-9.836-8.232a.765.765,0,0,0-.445.009L22.606,29.5c-.724.238-1.342.04-2.119-1.64a20.785,20.785,0,0,1,9.87-5.957,6.43,6.43,0,0,1,4.293,1.358.765.765,0,0,0,.194.088,5.36,5.36,0,0,0,3.325-.251l2.968,9.163a4.573,4.573,0,0,0-.411-.335,29.72,29.72,0,0,0-10.01-4.967Zm14.151-8.81,4.063,12.54a.651.651,0,0,1-.418.82L43.66,33.082a.646.646,0,0,1-.5-.04.655.655,0,0,1-.324-.379l-4.063-12.54a.653.653,0,0,1,.041-.5.644.644,0,0,1,.377-.322l4.854-1.57a.647.647,0,0,1,.819.415ZM36.751,1.318,41.229,5.75H36.751ZM35.256,0V6.5A.748.748,0,0,0,36,7.244h6.5v9.419L38.734,17.88a2.149,2.149,0,0,0-1.379,2.7l.354,1.1a4.167,4.167,0,0,1-2.334.269,7.7,7.7,0,0,0-5.284-1.517.5.5,0,0,0-.079.018,22.321,22.321,0,0,0-2.782.944.6.6,0,0,0-.145-.088,22.57,22.57,0,0,0-3.354-1.191.533.533,0,0,1-.08-.018,7.726,7.726,0,0,0-5.284,1.517,3.864,3.864,0,0,1-2.064-.176l.276-.855a2.15,2.15,0,0,0-1.379-2.7l-3.769-1.217V0ZM10.276,33.084,5.422,31.509A.651.651,0,0,1,5,30.689l4.063-12.54a.653.653,0,0,1,.619-.45.642.642,0,0,1,.2.035L14.74,19.3a.645.645,0,0,1,.377.322.653.653,0,0,1,.04.5L11.1,32.665a.654.654,0,0,1-.323.379.646.646,0,0,1-.5.04Zm1.77,7.152a1.223,1.223,0,0,0,1.687-.331l.547-.816.547-.816a1.216,1.216,0,1,0-2.02-1.354L11.713,38.55a1.215,1.215,0,0,0,.333,1.684ZM12,20.662a.746.746,0,0,1,.745-.75h0a.747.747,0,1,1-.75.75Zm28.4-.106a.749.749,0,1,0,.749-.75h0a.746.746,0,0,0-.745.75ZM15.072,4.189a.748.748,0,0,0,.748.75H32.2a.75.75,0,0,0,0-1.5H15.82a.748.748,0,0,0-.748.75Zm0,6.372a.747.747,0,0,0,.748.745H38.114a.747.747,0,1,0,0-1.495H15.82a.748.748,0,0,0-.748.75Zm0,6.367a.748.748,0,0,0,.748.75H38.114a.75.75,0,0,0,0-1.5H15.82a.748.748,0,0,0-.748.75Z" transform="translate(2769.029 -1181)" fill-rule="evenodd" opacity="0"/>
    <g id="Group_1086" data-name="Group 1086">
      <g id="Group_1085" data-name="Group 1085" opacity="0">
        <g id="Group_1084" data-name="Group 1084" opacity="0">
          <g id="Group_1071" data-name="Group 1071" opacity="0">
            <g id="Rectangle_174" data-name="Rectangle 174" transform="translate(2774 -1181)" fill="#fff" stroke="#707070" stroke-width="1" opacity="0">
              <rect width="44" height="44" stroke="none"/>
              <rect x="0.5" y="0.5" width="43" height="43" fill="none"/>
            </g>
            <g id="engineer" transform="translate(2737 -1181)">
              <g id="Group_1070" data-name="Group 1070" transform="translate(41 12.461)">
                <g id="Group_1068" data-name="Group 1068" transform="translate(6.016)">
                  <path id="Path_2772" data-name="Path 2772" d="M134.633,145H112.289A1.289,1.289,0,0,0,111,146.289v1.031a1.289,1.289,0,0,0,.749,1.17,26.84,26.84,0,0,0,23.424,0,1.289,1.289,0,0,0,.749-1.17v-1.031A1.289,1.289,0,0,0,134.633,145Z" transform="translate(-111 -145)"/>
                </g>
                <g id="Group_1069" data-name="Group 1069" transform="translate(0 17.196)">
                  <path id="Path_2773" data-name="Path 2773" d="M167.734,360.944h1.1V350.127a11.149,11.149,0,0,1-6.785-3.385Z" transform="translate(-151.65 -346.601)"/>
                  <path id="Path_2774" data-name="Path 2774" d="M271,360.944h1.1l5.681-14.2A11.149,11.149,0,0,1,271,350.127Z" transform="translate(-251.234 -346.601)"/>
                  <path id="Path_2775" data-name="Path 2775" d="M48.57,345.1A15.025,15.025,0,0,0,41,358.153a1.289,1.289,0,0,0,1.289,1.289H54.307Z" transform="translate(-41 -345.099)"/>
                  <path id="Path_2776" data-name="Path 2776" d="M321.893,345.1l-5.737,14.343h12.018a1.289,1.289,0,0,0,1.289-1.289,15.025,15.025,0,0,0-7.57-13.054Z" transform="translate(-292.51 -345.099)"/>
                </g>
              </g>
              <path id="Path_2777" data-name="Path 2777" d="M164.594,232.911A29.222,29.222,0,0,1,156,231.594v2.183a8.594,8.594,0,0,0,17.188,0v-2.183a29.218,29.218,0,0,1-8.594,1.317Z" transform="translate(-105.117 -211.691)"/>
              <path id="Path_2778" data-name="Path 2778" d="M155.485,9.883a10.626,10.626,0,0,0-1.906-3.952,10.837,10.837,0,0,0-3.369-2.88v.817a1.289,1.289,0,1,1-2.578,0V1.289A1.289,1.289,0,0,0,146.343,0h-2.578a1.289,1.289,0,0,0-1.289,1.289V3.867a1.289,1.289,0,1,1-2.578,0V3.05a10.837,10.837,0,0,0-3.369,2.88,10.625,10.625,0,0,0-1.906,3.952Z" transform="translate(-85.577)"/>
            </g>
          </g>
          <g id="agreement" transform="translate(2772.4 -1182)">
            <g id="Group_1081" data-name="Group 1081" transform="translate(15.495 22.023)">
              <g id="Group_1080" data-name="Group 1080">
                <g id="Group_1072" data-name="Group 1072" transform="translate(4.616 12.574)">
                  <path id="Path_2779" data-name="Path 2779" d="M31.463,48.993l-2.389,3.475a1.106,1.106,0,0,1-1.448.29,1.037,1.037,0,0,1-.29-1.448l2.389-3.475a1.032,1.032,0,0,1,.869-.434,1.364,1.364,0,0,1,.579.145,1.054,1.054,0,0,1,.434.652,1,1,0,0,1-.145.8Z" transform="translate(-27.166 -47.4)"/>
                </g>
                <g id="Group_1073" data-name="Group 1073">
                  <path id="Path_2780" data-name="Path 2780" d="M30.427,31.82l-7.241,9.92c-.072.145-.217.217-.434.072l-1.81-1.3a.273.273,0,0,1-.072-.434l7.241-9.92a.349.349,0,0,1,.434-.072l1.81,1.3a.273.273,0,0,1,.072.434Z" transform="translate(-20.791 -30.034)"/>
                </g>
                <g id="Group_1074" data-name="Group 1074" transform="translate(7.585 15.615)">
                  <path id="Path_2781" data-name="Path 2781" d="M34.766,53.193,33.173,55.51a1.106,1.106,0,0,1-1.448.29,1.037,1.037,0,0,1-.29-1.448l1.593-2.317A1.032,1.032,0,0,1,33.9,51.6a1.7,1.7,0,0,1,.579.145,1.139,1.139,0,0,1,.287,1.448Z" transform="translate(-31.266 -51.6)"/>
                </g>
                <g id="Group_1075" data-name="Group 1075" transform="translate(10.481 18.848)">
                  <path id="Path_2782" data-name="Path 2782" d="M37.9,57.611a12.957,12.957,0,0,0-.724,1.086,1.106,1.106,0,0,1-1.448.29.977.977,0,0,1-.29-1.376l.724-1.086a1.037,1.037,0,0,1,1.448-.29.987.987,0,0,1,.29,1.376Z" transform="translate(-35.266 -56.066)"/>
                </g>
                <g id="Group_1076" data-name="Group 1076" transform="translate(13.436 21.373)">
                  <path id="Path_2783" data-name="Path 2783" d="M41.485,61.18l-.217.434a1.106,1.106,0,0,1-1.448.29,1.037,1.037,0,0,1-.29-1.448l.362-.579a1.031,1.031,0,0,1,1.593,1.3Z" transform="translate(-39.348 -59.553)"/>
                </g>
                <g id="Group_1077" data-name="Group 1077" transform="translate(4.134 3.595)">
                  <path id="Path_2784" data-name="Path 2784" d="M47.28,46.078a.712.712,0,0,1,.217,1.014.779.779,0,0,1-1.014.217L42.791,44.7a.779.779,0,0,0-1.014.145.766.766,0,0,0,.145,1.014L45.035,48.1a.779.779,0,0,1,.217,1.014.712.712,0,0,1-1.014.217l-2.824-2.027a.779.779,0,0,0-1.014.145.712.712,0,0,0,.217,1.014l2.824,1.955a.724.724,0,0,1,.217,1.014.779.779,0,0,1-1.014.217c-.072-.072-2.824-1.883-2.751-1.883a.712.712,0,0,0-1.014.217A.735.735,0,0,0,39.1,51c.869.579,2.245,1.521,2.172,1.448a.766.766,0,0,1,.145,1.014.779.779,0,0,1-1.014.217l-.941-.652a2.279,2.279,0,0,0-.941-1.231,2.384,2.384,0,0,0-1.376-.434,1.594,1.594,0,0,0-.072-.579,2.471,2.471,0,0,0-1.086-1.593,1.951,1.951,0,0,0-1.087-.36,2.582,2.582,0,0,0-1.014-2.824,2.155,2.155,0,0,0-1.086-.362,2.442,2.442,0,0,0-1.014-2.679,2.384,2.384,0,0,0-1.376-.434,2.75,2.75,0,0,0-2.1,1.086l-.507.8c-.362-.362-.869-.724-1.3-1.231L32.51,35a13.05,13.05,0,0,1,2.462,1.158,4.288,4.288,0,0,0-.434.29,3.543,3.543,0,0,0-1.955,2.389,2.091,2.091,0,0,0,1.086,2.172,4.342,4.342,0,0,0,4.489-.724c.29-.29,1.014-.941,1.3-.724Z" transform="translate(-26.5 -35)"/>
                </g>
                <g id="Group_1078" data-name="Group 1078" transform="translate(11.648 4.815)">
                  <path id="Path_2785" data-name="Path 2785" d="M50.8,43.212a2.271,2.271,0,0,1-.362,1.738L43.2,38.94c-1.086-.869-2.317-.145-3.258.8a2.526,2.526,0,0,1-1.665.579c-.652.072-1.521-.145-1.376-.8A2.554,2.554,0,0,1,38.2,38a10.139,10.139,0,0,1,1.231-.724H39.5a4.564,4.564,0,0,1,3.548-.362,8.1,8.1,0,0,0,4.2.652L50.8,42.923Z" transform="translate(-36.878 -36.685)"/>
                </g>
                <g id="Group_1079" data-name="Group 1079" transform="translate(21.968 1.496)">
                  <path id="Path_2786" data-name="Path 2786" d="M58.928,41.658l-1.231.8a.724.724,0,0,1-1.014-.217l-5.43-8.182a.712.712,0,0,1,.217-1.014l1.231-.8a1.029,1.029,0,0,1,.434-.145.645.645,0,0,1,.579.362l5.43,8.182a.712.712,0,0,1-.217,1.014Z" transform="translate(-51.131 -32.1)"/>
                </g>
              </g>
            </g>
            <g id="Group_1082" data-name="Group 1082" transform="translate(2.034 1.434)">
              <path id="Path_2787" data-name="Path 2787" d="M8.572,7.972V1.6L2.2,7.972Z" transform="translate(-2.2 -1.6)"/>
            </g>
            <g id="Group_1083" data-name="Group 1083" transform="translate(1.6 1)">
              <path id="Path_2788" data-name="Path 2788" d="M31.938,1H9.854V8.53a.684.684,0,0,1-.724.724H1.6V39.23a.684.684,0,0,0,.724.724H18.833a2.5,2.5,0,0,1,.217-2.245l1.014-1.521-.072-.072a17.066,17.066,0,0,1-1.3-1.231,1.736,1.736,0,0,1-2.172.072l-1.81-1.3a1.836,1.836,0,0,1-.434-2.462l7.241-9.92a1.777,1.777,0,0,1,2.462-.434l1.81,1.3a1.949,1.949,0,0,1,.579,2.245,11.5,11.5,0,0,1,2.317,1.158l.724.434a6.246,6.246,0,0,1,2.462-.507,2,2,0,0,1,.652.072V1.724A.549.549,0,0,0,31.938,1ZM7.972,32.062H6.524a.724.724,0,1,1,0-1.448H7.972a.724.724,0,1,1,0,1.448Zm0-5.792H6.524a.724.724,0,1,1,0-1.448H7.972a.724.724,0,1,1,0,1.448Zm0-5.792H6.524a.724.724,0,1,1,0-1.448H7.972a.724.724,0,1,1,0,1.448Zm0-5.792H6.524a.724.724,0,1,1,0-1.448H7.972a.724.724,0,1,1,0,1.448Zm7.24,11.584h-3.62a.724.724,0,1,1,0-1.448h3.62a.724.724,0,1,1,0,1.448ZM18.4,20.477H11.664a.724.724,0,0,1,0-1.448H18.4a.684.684,0,0,1,.724.724A.726.726,0,0,1,18.4,20.477Zm9.413-5.792H11.592a.724.724,0,0,1,0-1.448H27.738a.684.684,0,0,1,.724.724.63.63,0,0,1-.651.724Zm0-5.43H13.33a.724.724,0,0,1,0-1.448H27.811a.684.684,0,0,1,.724.724.726.726,0,0,1-.724.723Z" transform="translate(-1.6 -1)"/>
            </g>
          </g>
        </g>
        <g id="real_estate" data-name="real estate" transform="translate(2770 -1185)">
          <path id="Path_2789" data-name="Path 2789" d="M10.786,38a.786.786,0,0,0-.786.786v11a.786.786,0,1,0,1.571,0v-11A.786.786,0,0,0,10.786,38Z" transform="translate(-1.287 -7.292)"/>
          <path id="Path_2790" data-name="Path 2790" d="M4,53.029l3.142-3.142V40H4Z" transform="translate(0 -7.721)"/>
          <path id="Path_2791" data-name="Path 2791" d="M18.642,33.663l5.719,3.05h18.49c1.789-.769,2.656-1.134,3.084-1.309l1.7-3.4H4.618l2.357,4.713H7.42a2.34,2.34,0,0,1,4.291-.3l6.243-2.775a.786.786,0,0,1,.689.024Z" transform="translate(-0.133 -6.005)"/>
          <path id="Path_2792" data-name="Path 2792" d="M26,4H15V24.424H26ZM18.142,22.853H16.571V21.282h1.571Zm0-3.142H16.571V18.14h1.571Zm0-3.142H16.571V15h1.571Zm0-3.142H16.571V11.855h1.571Zm0-3.142H16.571V8.713h1.571Zm0-3.142H16.571V5.571h1.571Zm3.142,15.711H19.713V21.282h1.571Zm0-3.142H19.713V18.14h1.571Zm0-3.142H19.713V15h1.571Zm0-3.142H19.713V11.855h1.571Zm0-3.142H19.713V8.713h1.571Zm0-3.142H19.713V5.571h1.571Zm3.142,15.711H22.855V21.282h1.571Zm0-3.142H22.855V18.14h1.571Zm0-3.142H22.855V15h1.571Zm0-3.142H22.855V11.855h1.571Zm0-3.142H22.855V8.713h1.571Zm0-3.142H22.855V5.571h1.571Z" transform="translate(-2.359)"/>
          <path id="Path_2793" data-name="Path 2793" d="M45.14,12H31V26.14H45.14Zm-11,12.569H32.571V23h1.571Zm0-3.142H32.571V19.855h1.571Zm0-3.142H32.571V16.713h1.571Zm0-3.142H32.571V13.571h1.571Zm3.142,9.426H35.713V23h1.571Zm0-3.142H35.713V19.855h1.571Zm0-3.142H35.713V16.713h1.571Zm0-3.142H35.713V13.571h1.571Zm3.142,9.426H38.855V23h1.571Zm0-3.142H38.855V19.855h1.571Zm0-3.142H38.855V16.713h1.571Zm0-3.142H38.855V13.571h1.571Zm3.142,9.426H42V23h1.571Zm0-3.142H42V19.855h1.571Zm0-3.142H42V16.713h1.571Zm0-3.142H42V13.571h1.571Z" transform="translate(-5.79 -1.716)"/>
          <path id="Path_2794" data-name="Path 2794" d="M49.693,37.936a1.244,1.244,0,0,0-.943-.288c-.628.236-10.3,4.43-16.748,7.241a2.333,2.333,0,0,1-1.507.562H20.284V43.879H30.5a.786.786,0,0,0,.786-.786v-1.1L20.253,36.112,14,38.891v9.965l14.048,5.915L49.594,39.909a1.251,1.251,0,0,0,.54-1.018,1.213,1.213,0,0,0-.441-.955Z" transform="translate(-2.145 -6.887)"/>
          <path id="Path_2795" data-name="Path 2795" d="M45.408,40H33.5l3.119,1.663a.786.786,0,0,1,.416.694V43.64C40.576,42.1,43.305,40.911,45.408,40Z" transform="translate(-6.327 -7.721)"/>
        </g>
      </g>
      <g id="Layer_x0020_1" transform="translate(2773.51 -1180.622)">
        <g id="_498701496" transform="translate(0.49 0.622)">
          <path id="_510605776" d="M1.156,5.188V11.4l1.057-.24a6,6,0,0,1,3.605.294l8.163,3.317a4.809,4.809,0,0,0,3.9-.126L28.333,9.591A1.068,1.068,0,0,0,27.58,7.6L19.18,9.94a1.9,1.9,0,0,1-.1.407,1.933,1.933,0,0,1-2.4,1.2l-6.5-1.993a.528.528,0,0,1,.31-1.01l6.51,2a.881.881,0,0,0,1.1-.55.869.869,0,0,0,.052-.3.786.786,0,0,0-.006-.093.883.883,0,0,0-.414-.659L9.757,5.7a11.746,11.746,0,0,0-5.543-.809l-3.057.3Z" transform="translate(3.858 26.879)" fill-rule="evenodd"/>
          <path id="_510605656" d="M.876,4.754v8.581h.937a.121.121,0,0,0,.121-.121V5.306a.529.529,0,0,1,0-.133v-.3a.122.122,0,0,0-.121-.122H.876Z" transform="translate(2.026 26.334)" fill-rule="evenodd"/>
          <path id="_510605920" d="M.49,4.648v10.18H2.237a.1.1,0,0,0,.1-.1V4.747a.1.1,0,0,0-.1-.1H.49Z" transform="translate(-0.49 25.641)" fill-rule="evenodd"/>
          <path id="_510605968" d="M3.707,3.266l-.954,3.56L7.822,8.185a.532.532,0,0,1,.324.253l.841,1.506,1.569-.96a.526.526,0,0,1,.412-.06l3.125.837a.53.53,0,0,1,.326.257l.925,1.686,2.493-.752L21.22,9.869,18.93,7.348Z" transform="translate(14.274 16.629)" fill-rule="evenodd"/>
          <path id="_510605992" d="M4.388,3.184,1.6,13.594a1.028,1.028,0,0,0,.724,1.254l5,1.339a1.025,1.025,0,0,0,1.254-.724l.776-2.895v-.02l.006-.02,2-7.474A1.031,1.031,0,0,0,10.638,3.8l-5-1.339a1.024,1.024,0,0,0-1.255.724Zm3.1,4.422-.993,3.708a.529.529,0,0,1-.51.391.545.545,0,0,1-.137-.018.528.528,0,0,1-.374-.646l.994-3.708a.528.528,0,1,1,1.02.273Z" transform="translate(6.516 11.145)" fill-rule="evenodd"/>
          <path id="_510605752" d="M14.229,4.194l6.5,1.994a.528.528,0,0,1-.31,1.009l-6.5-2a.888.888,0,0,0-1.146.848.8.8,0,0,0,0,.085v.024a.89.89,0,0,0,.413.644l7.966,3.241a11.745,11.745,0,0,0,5.543.809l3.056-.3v-6.2L28.7,4.585a6,6,0,0,1-3.6-.294L16.933.974a4.805,4.805,0,0,0-3.9.126L2.582,6.155a1.068,1.068,0,0,0,.752,1.99l8.4-2.339a1.943,1.943,0,0,1,2.5-1.612Z" transform="translate(9.218 -0.622)" fill-rule="evenodd"/>
          <path id="_498706944" d="M5.81,1.685V8.962a.531.531,0,0,1,0,.136v.294a.122.122,0,0,0,.122.122h.937V.932H5.932a.122.122,0,0,0-.122.122v.631Z" transform="translate(34.22 1.402)" fill-rule="evenodd"/>
          <path id="_498701376" d="M6.091,1.1v9.809a.1.1,0,0,0,.1.1H7.937V.826H6.19a.1.1,0,0,0-.1.1V1.1Z" transform="translate(36.053 0.709)" fill-rule="evenodd"/>
        </g>
      </g>
    </g>
  </g>
</svg>
