<svg xmlns="http://www.w3.org/2000/svg" width="110" height="110" viewBox="0 0 110 110">
  <g id="Lending_And_Borrowing" data-name="Lending And Borrowing" transform="translate(-0.5 -0.5)">
    <circle id="Ellipse_128" data-name="Ellipse 128" cx="55" cy="55" r="55" transform="translate(0.5 0.5)" fill="#f9ab3e"/>
    <path id="debt" d="M38.367,19.659a1.157,1.157,0,1,1-1.976-.818,1.158,1.158,0,0,1,1.976.818Zm.429-1.586A2.244,2.244,0,1,0,37.21,21.9,2.244,2.244,0,0,0,38.8,18.073ZM32.7,14.3a1.156,1.156,0,1,1-1.973-.818A1.155,1.155,0,0,1,32.7,14.3Zm.432-1.586A2.244,2.244,0,1,0,31.54,16.55,2.243,2.243,0,0,0,33.129,12.719Zm4.62.12-7.518,7.515a.545.545,0,0,0,.77.77l7.515-7.518a.543.543,0,1,0-.768-.768Zm1.988-1.22a7.582,7.582,0,1,1-10.723,0A7.581,7.581,0,0,1,39.737,11.619ZM52.469,30.475c1.26-.2,2.641-1.07,2.641-2.482a2.094,2.094,0,0,0-.607-1.621,5.36,5.36,0,0,0-2.643-.909,8.85,8.85,0,0,1-1.248-.271,1.679,1.679,0,0,1-.921-.6A1.051,1.051,0,0,1,49.522,24a1.248,1.248,0,0,1,.587-.971,2.67,2.67,0,0,1,.424-.241,2.781,2.781,0,0,1,.677-.2,3.322,3.322,0,0,1,1.757.189A1.606,1.606,0,0,1,54,23.791a1,1,0,0,1,.022.211.543.543,0,0,0,1.086,0c0-1.416-1.38-2.282-2.641-2.485l-.153-.025V20.68a.543.543,0,1,0-1.086,0v.813l-.153.025c-1.26.2-2.643,1.07-2.643,2.485a2.1,2.1,0,0,0,.61,1.621,5.359,5.359,0,0,0,2.641.909,9.145,9.145,0,0,1,1.248.268,1.692,1.692,0,0,1,.921.6,1.053,1.053,0,0,1,.171.592,1.246,1.246,0,0,1-.59.969,2.256,2.256,0,0,1-.421.241,2.969,2.969,0,0,1-.68.2,3.322,3.322,0,0,1-1.754-.19A1.6,1.6,0,0,1,49.544,28.2a.967.967,0,0,1-.023-.208.545.545,0,1,0-1.089,0c0,1.413,1.383,2.282,2.643,2.482l.153.025v.816a.543.543,0,0,0,1.086,0V30.5ZM47.6,9.258V8.17a1.528,1.528,0,0,1-1.363-.677A1.133,1.133,0,0,1,46.3,6.449a1.086,1.086,0,0,1,.951-.562l2.331.012c1.8.007,5.492-.174,6.185-2.244l.05-.151.159.033a5.512,5.512,0,0,1,2.073.8c.241.159.472.334.7.509.494.374.979.728,1.509,1.056l.085.053v8.5l-.083.053a16,16,0,0,1-3.251,1.687,9.492,9.492,0,0,1-2.731.56,22.937,22.937,0,0,1-3.371-.159c-.989-.09-1.976-.178-2.967-.226h-.011a1.8,1.8,0,0,1-1.3-.653.524.524,0,0,1,.479-.77.543.543,0,1,0,0-1.086c-.043,0-.085,0-.126.005h-.012c-.419,0-1.062-.055-1.3-.462a.6.6,0,0,1-.058-.138.852.852,0,0,1,.088-.62.874.874,0,0,1,.6-.49l.01,0h.241a.542.542,0,0,0,.126-1.077,1.7,1.7,0,0,0-.464-.01l-.018,0-.02,0a.848.848,0,0,1-.748-.5.979.979,0,0,1-.018-.715.919.919,0,0,1,.911-.587ZM48.63,4.813,46.251.8l.3-.018A5.866,5.866,0,0,1,47.872.9a10.929,10.929,0,0,1,1.519.4,10.01,10.01,0,0,1,1.378.58.54.54,0,0,0,.758-.3A3.1,3.1,0,0,1,53.018.375,3.478,3.478,0,0,1,54.606.013c.554.048.6.374.522.858l-.4,2.452-.01.02A2.507,2.507,0,0,1,53.01,4.46a15.892,15.892,0,0,1-4.277.352h-.1Zm17.613-.681.078.238V16.877l-.068.246-4.52-.553a.392.392,0,0,1-.241-.108l-.05-.053-.008-11.6a.282.282,0,0,1,.283-.259ZM42.428,34.549l6.656,1.772a3.689,3.689,0,0,0,.522.083c.256.027.512.048.768.066.452.03.909.055,1.36.068.412.01.828.012,1.24-.01a2.883,2.883,0,0,0,.753-.108l6.523-2.664a2.63,2.63,0,0,1,2.093-.055.771.771,0,0,1,.291.234.255.255,0,0,1,.03.06c.111.316-.406.65-.628.781l-5.572,3.318a3.3,3.3,0,0,1-.447.193c-.281.111-.568.216-.854.319-.813.3-1.634.577-2.455.854q-.979.331-1.97.638c-.5.153-1.011.309-1.521.427l-.015,0-.018,0q-1.777.076-3.557.148l-6.8.276a2.167,2.167,0,0,0-.261.023l-.138.018-2.638-6.456.111-.085c.078-.058.153-.118.228-.178.253-.2.5-.4.751-.607a9.855,9.855,0,0,1,3.476-2.061,9.167,9.167,0,0,1,2.829-.3c.6.015,1.2.058,1.792.111.738.06,1.471.135,2.207.211.434.043,1.094.083,1.308.53a.625.625,0,0,1,.008.484,1.12,1.12,0,0,1-.313.449,2.029,2.029,0,0,1-1.405.452l-4.382-.1a.541.541,0,0,0-.151,1.064Zm5.3-17.114.07.01.053.005c.992.045,1.976.13,2.962.223a24.672,24.672,0,0,0,3.6.168,9.832,9.832,0,0,0,1.852-.271l.105-.025.073.083c2.011,2.3,3.813,4.458,4.187,7.605a10.971,10.971,0,0,1-.421,4.88,7.7,7.7,0,0,1-2.382,3.449l-.02.018-4.49,1.832a2.674,2.674,0,0,1-.668.053c-.361,0-.725-.005-1.089-.018-.341-.012-.683-.027-1.025-.048-.205-.012-.437-.02-.64-.053a6.571,6.571,0,0,1-.984-.244c-.313-.1-.63-.2-.932-.329l-.437-.178.445-.159a2.573,2.573,0,0,0,1.33-1.019,1.883,1.883,0,0,0,.279-1.343,1.649,1.649,0,0,0-.59-.971,2.643,2.643,0,0,0-1.416-.527c-.753-.075-1.5-.151-2.256-.219-.638-.058-1.28-.111-1.921-.138l-.118-.005-.043-.111a9.689,9.689,0,0,1-.522-4.606c.311-2.811,2.658-5.888,4.357-8.1l.073-.1.118.033c.145.039.294.069.445.094ZM34.846,44.2a.162.162,0,0,1-.123.078.183.183,0,0,1-.2-.118L30.744,34.9l.03-.07a.155.155,0,0,1,.035-.053.191.191,0,0,1,.2-.05,4.48,4.48,0,0,1,1.521-.5c.391-.07.783-.138,1.177-.2.128-.023.256-.045.384-.066.113-.018.276-.066.341.09l3.29,8.06a.19.19,0,0,1-.045.205l-.033.03c-.033.03-.068.058-.1.085L37.2,42.7c-.349.268-.7.535-1.055.8A4.333,4.333,0,0,1,34.846,44.2Z" transform="translate(8.707 33.493)" fill-rule="evenodd"/>
  </g>
</svg>
