<svg xmlns="http://www.w3.org/2000/svg" width="110" height="110" viewBox="0 0 110 110">
  <g id="Living_Will" data-name="Living Will" transform="translate(-0.5)">
    <circle id="Ellipse_111" data-name="Ellipse 111" cx="55" cy="55" r="55" transform="translate(0.5)" fill="#f9ab3e"/>
    <g id="Group_1150" data-name="Group 1150" transform="translate(0.5)">
      <g id="company" transform="translate(33 33)" opacity="0">
        <g id="Group_1147" data-name="Group 1147" transform="translate(28.618 14.362)">
          <g id="Group_1146" data-name="Group 1146">
            <path id="Path_2855" data-name="Path 2855" d="M345.35,193.422h-1.383V171.375a1.261,1.261,0,0,0-.882-1.219L331,166.11v29.906h14.35a1.3,1.3,0,1,0,0-2.594Zm-3.977,0h-2.594v-5.188h-2.594v5.188h-2.594v-6.484a1.284,1.284,0,0,1,1.3-1.3h5.188a1.284,1.284,0,0,1,1.3,1.3v6.484Zm-1.3-10.375h-5.187a1.3,1.3,0,1,1,0-2.594h5.188a1.3,1.3,0,1,1,0,2.594Zm0-5.188h-5.187a1.3,1.3,0,1,1,0-2.594h5.188a1.3,1.3,0,1,1,0,2.594Z" transform="translate(-330.998 -166.11)"/>
          </g>
        </g>
        <g id="Group_1149" data-name="Group 1149">
          <g id="Group_1148" data-name="Group 1148">
            <path id="Path_2856" data-name="Path 2856" d="M25.2,7.86,4.452.079A1.311,1.311,0,0,0,2.688,1.3V41.674H1.3a1.3,1.3,0,1,0,0,2.594H26.032V9.079A1.3,1.3,0,0,0,25.2,7.86ZM13.063,41.674H7.876V35.19a1.284,1.284,0,0,1,1.3-1.3h3.891v7.781ZM11.766,31.3H9.173a1.3,1.3,0,0,1,0-2.594h2.594a1.3,1.3,0,1,1,0,2.594Zm0-5.188H9.173a1.3,1.3,0,0,1,0-2.594h2.594a1.3,1.3,0,0,1,0,2.594Zm0-5.188H9.173a1.3,1.3,0,0,1,0-2.594h2.594a1.3,1.3,0,1,1,0,2.594Zm0-5.188H9.173a1.3,1.3,0,0,1,0-2.594h2.594a1.3,1.3,0,1,1,0,2.594Zm9.078,25.938H15.657V33.893h3.891a1.284,1.284,0,0,1,1.3,1.3v6.484ZM19.548,31.3H16.954a1.3,1.3,0,1,1,0-2.594h2.594a1.3,1.3,0,1,1,0,2.594Zm0-5.188H16.954a1.3,1.3,0,1,1,0-2.594h2.594a1.3,1.3,0,1,1,0,2.594Zm0-5.188H16.954a1.3,1.3,0,1,1,0-2.594h2.594a1.3,1.3,0,1,1,0,2.594Zm0-5.188H16.954a1.3,1.3,0,1,1,0-2.594h2.594a1.3,1.3,0,1,1,0,2.594Z" transform="translate(-0.008)"/>
          </g>
        </g>
      </g>
      <g id="living-room" transform="translate(33 35)">
        <path id="Path_2857" data-name="Path 2857" d="M139.346,366.2h-22.39v8.118h22.4V374.2Zm0,0" transform="translate(-106.841 -334.539)"/>
        <path id="Path_2858" data-name="Path 2858" d="M1.294,11.333H24.93a1.294,1.294,0,0,0,1.295-1.295V1.294A1.294,1.294,0,0,0,24.93,0H1.294A1.294,1.294,0,0,0,0,1.294v8.744a1.294,1.294,0,0,0,1.3,1.3Zm0,0"/>
        <path id="Path_2859" data-name="Path 2859" d="M382.4,43.386v4.09h.736v-10.5h3.292a1.3,1.3,0,0,0,1.258-1.6l-1.98-8.183a1.294,1.294,0,0,0-1.258-.99h-5.214a1.3,1.3,0,0,0-1.258.99L376,35.372a1.3,1.3,0,0,0,1.258,1.6h3.292v3.106a3.885,3.885,0,0,1,1.85,3.308Zm0,0" transform="translate(-343.455 -23.934)"/>
        <path id="Path_2860" data-name="Path 2860" d="M98.694,220.93v-1.96a3.574,3.574,0,0,1,3.57-3.57h.28v-4.09a1.3,1.3,0,0,0-1.295-1.295h-27.5a1.3,1.3,0,0,0-1.295,1.295v4.09h.28a3.574,3.574,0,0,1,3.57,3.57v1.96Zm0,0" transform="translate(-66.189 -191.858)"/>
        <path id="Path_2861" data-name="Path 2861" d="M17.478,303.215a.982.982,0,0,0-.981-.981H11.876a.982.982,0,0,0-.981.981v12.551a.982.982,0,0,0,.981.981H16.5a.982.982,0,0,0,.981-.981Zm0,0" transform="translate(-9.953 -276.104)"/>
        <path id="Path_2862" data-name="Path 2862" d="M412.49,315.766V303.215a.983.983,0,0,0-.981-.981h-4.621a.982.982,0,0,0-.981.981v12.551a.982.982,0,0,0,.981.981h4.621a.982.982,0,0,0,.981-.981Zm0,0" transform="translate(-370.813 -276.104)"/>
      </g>
    </g>
  </g>
</svg>
