<svg xmlns="http://www.w3.org/2000/svg" width="110" height="110" viewBox="0 0 110 110">
  <g id="LLC_Operating_Agreement" data-name="LLC Operating Agreement" transform="translate(-2741 1214)">
    <circle id="Ellipse_1" data-name="Ellipse 1" cx="55" cy="55" r="55" transform="translate(2741 -1214)" fill="#f9ab3e"/>
    <g id="Rectangle_29" data-name="Rectangle 29" transform="translate(2774 -1181)" fill="#fff" stroke="#707070" stroke-width="1" opacity="0">
      <rect width="44" height="44" stroke="none"/>
      <rect x="0.5" y="0.5" width="43" height="43" fill="none"/>
    </g>
    <path id="business" d="M15.673,43.419a1.187,1.187,0,0,1-.911-.181,1.214,1.214,0,0,1-.334-1.684l.547-.816.547-.816a1.218,1.218,0,0,1,.775-.516,1.5,1.5,0,0,1,.241-.022,1.216,1.216,0,0,1,1,1.892l-1.093,1.632a1.194,1.194,0,0,1-.775.512Zm3.44.811a1.213,1.213,0,0,1-.333-1.684l1.094-1.631a1.216,1.216,0,1,1,2.02,1.354L20.8,43.9a1.217,1.217,0,0,1-1.687.331Zm4.841.613a.851.851,0,0,1-.646-.123.866.866,0,0,1-.364-.551.847.847,0,0,1,.128-.644l.9-1.336a.86.86,0,1,1,1.43.957l-.9,1.336a.848.848,0,0,1-.548.362Zm16.6-9.653a1.608,1.608,0,0,0-.691-2.042,28.288,28.288,0,0,0-9.343-4.687l-7.443,2.46a2.948,2.948,0,0,1-.946.163c-1.925,0-2.837-2.183-3.212-3.078a.747.747,0,0,1,.13-.785,22.341,22.341,0,0,1,6.375-4.987,20.807,20.807,0,0,0-2.036-.666A6.451,6.451,0,0,0,19.1,22.926a.808.808,0,0,1-.194.093,4.026,4.026,0,0,1-1.152.159,6.366,6.366,0,0,1-1.9-.322L12.517,33.127a2.107,2.107,0,0,1-.339.64,2.5,2.5,0,0,0,.969,1.138.554.554,0,0,1,.073.049,2.707,2.707,0,0,1,3.255,2.116,2.771,2.771,0,0,1,.038.82,2.705,2.705,0,0,1,2.536,1.71,2.71,2.71,0,0,1,3.345-.256,2.666,2.666,0,0,1,1.038,1.332,2.356,2.356,0,0,1,3.325,3.113l1.645.873a1.11,1.11,0,0,0,1.04-1.962l-2.436-1.292a.749.749,0,0,1,.7-1.323l2.436,1.3L31.291,42a1.473,1.473,0,0,0,1.383-2.6h0l-2.463-1.31a.747.747,0,1,1,.7-1.318l3.923,2.086a1.473,1.473,0,1,0,1.384-2.6l-2.283-1.213L32.3,34.164a.747.747,0,1,1,.7-1.318l3.922,2.085,1.639.869a1.48,1.48,0,0,0,1.993-.609Zm-9.836-8.232a.765.765,0,0,0-.445.009L22.606,29.5c-.724.238-1.342.04-2.119-1.64a20.785,20.785,0,0,1,9.87-5.957,6.43,6.43,0,0,1,4.293,1.358.765.765,0,0,0,.194.088,5.36,5.36,0,0,0,3.325-.251l2.968,9.163a4.573,4.573,0,0,0-.411-.335,29.72,29.72,0,0,0-10.01-4.967Zm14.151-8.81,4.063,12.54a.651.651,0,0,1-.418.82L43.66,33.082a.646.646,0,0,1-.5-.04.655.655,0,0,1-.324-.379l-4.063-12.54a.653.653,0,0,1,.041-.5.644.644,0,0,1,.377-.322l4.854-1.57a.647.647,0,0,1,.819.415ZM36.751,1.318,41.229,5.75H36.751ZM35.256,0V6.5A.748.748,0,0,0,36,7.244h6.5v9.419L38.734,17.88a2.149,2.149,0,0,0-1.379,2.7l.354,1.1a4.167,4.167,0,0,1-2.334.269,7.7,7.7,0,0,0-5.284-1.517.5.5,0,0,0-.079.018,22.321,22.321,0,0,0-2.782.944.6.6,0,0,0-.145-.088,22.57,22.57,0,0,0-3.354-1.191.533.533,0,0,1-.08-.018,7.726,7.726,0,0,0-5.284,1.517,3.864,3.864,0,0,1-2.064-.176l.276-.855a2.15,2.15,0,0,0-1.379-2.7l-3.769-1.217V0ZM10.276,33.084,5.422,31.509A.651.651,0,0,1,5,30.689l4.063-12.54a.653.653,0,0,1,.619-.45.642.642,0,0,1,.2.035L14.74,19.3a.645.645,0,0,1,.377.322.653.653,0,0,1,.04.5L11.1,32.665a.654.654,0,0,1-.323.379.646.646,0,0,1-.5.04Zm1.77,7.152a1.223,1.223,0,0,0,1.687-.331l.547-.816.547-.816a1.216,1.216,0,1,0-2.02-1.354L11.713,38.55a1.215,1.215,0,0,0,.333,1.684ZM12,20.662a.746.746,0,0,1,.745-.75h0a.747.747,0,1,1-.75.75Zm28.4-.106a.749.749,0,1,0,.749-.75h0a.746.746,0,0,0-.745.75ZM15.072,4.189a.748.748,0,0,0,.748.75H32.2a.75.75,0,0,0,0-1.5H15.82a.748.748,0,0,0-.748.75Zm0,6.372a.747.747,0,0,0,.748.745H38.114a.747.747,0,1,0,0-1.495H15.82a.748.748,0,0,0-.748.75Zm0,6.367a.748.748,0,0,0,.748.75H38.114a.75.75,0,0,0,0-1.5H15.82a.748.748,0,0,0-.748.75Z" transform="translate(2769.029 -1181)" fill-rule="evenodd"/>
  </g>
</svg>
