<svg xmlns="http://www.w3.org/2000/svg" width="74.675" height="74.968" viewBox="0 0 74.675 74.968">
  <g id="_Member_" data-name=" Member " transform="translate(-1)">
    <g id="Group_227" data-name="Group 227" transform="translate(1 36.605)">
      <g id="Group_226" data-name="Group 226" transform="translate(0)">
        <g id="Group_225" data-name="Group 225">
          <g id="Group_213" data-name="Group 213">
            <g id="Group_212" data-name="Group 212">
              <g id="Group_211" data-name="Group 211">
                <g id="Group_210" data-name="Group 210">
                  <g id="Group_209" data-name="Group 209">
                    <g id="Group_208" data-name="Group 208">
                      <g id="Group_207" data-name="Group 207">
                        <g id="Group_204" data-name="Group 204" transform="translate(0 14.642)">
                          <path id="Path_2197" data-name="Path 2197" d="M17.838,350H9.053A8.053,8.053,0,0,0,1,358.053v7.321a2.2,2.2,0,0,0,2.2,2.2h22.7v-9.517A8.053,8.053,0,0,0,17.838,350Z" transform="translate(-1 -350)" fill="#00ec89"/>
                          <path id="Path_2198" data-name="Path 2198" d="M98.446,358.053A8.053,8.053,0,0,0,90.393,350H86v17.571H98.446Z" transform="translate(-73.554 -350)" fill="#00cb75"/>
                        </g>
                        <g id="Group_206" data-name="Group 206" transform="translate(3.661)">
                          <g id="Group_205" data-name="Group 205">
                            <path id="Path_2199" data-name="Path 2199" d="M34.785,267.571a8.785,8.785,0,1,1,8.785-8.785A8.8,8.8,0,0,1,34.785,267.571Z" transform="translate(-26 -250)" fill="#ffd7aa"/>
                          </g>
                        </g>
                      </g>
                    </g>
                  </g>
                </g>
              </g>
            </g>
          </g>
          <path id="Path_2200" data-name="Path 2200" d="M86,250v17.571A8.785,8.785,0,1,0,86,250Z" transform="translate(-73.554 -250)" fill="#ffc58f"/>
          <g id="Group_224" data-name="Group 224" transform="translate(24.892)">
            <g id="Group_223" data-name="Group 223">
              <g id="Group_222" data-name="Group 222">
                <g id="Group_221" data-name="Group 221">
                  <g id="Group_220" data-name="Group 220">
                    <g id="Group_219" data-name="Group 219">
                      <g id="Group_218" data-name="Group 218">
                        <g id="Group_217" data-name="Group 217">
                          <g id="Group_214" data-name="Group 214" transform="translate(0 14.642)">
                            <path id="Path_2201" data-name="Path 2201" d="M187.838,350h-8.785A8.053,8.053,0,0,0,171,358.053v9.517h24.892v-9.517A8.053,8.053,0,0,0,187.838,350Z" transform="translate(-171 -350)" fill="#e4e4ff"/>
                            <path id="Path_2202" data-name="Path 2202" d="M268.446,358.053A8.053,8.053,0,0,0,260.393,350H256v17.571h12.446Z" transform="translate(-243.554 -350)" fill="#b7b4e7"/>
                          </g>
                          <g id="Group_216" data-name="Group 216" transform="translate(3.661)">
                            <g id="Group_215" data-name="Group 215">
                              <path id="Path_2203" data-name="Path 2203" d="M204.785,267.571a8.785,8.785,0,1,1,8.785-8.785A8.8,8.8,0,0,1,204.785,267.571Z" transform="translate(-196 -250)" fill="#ffd7aa"/>
                            </g>
                          </g>
                        </g>
                      </g>
                    </g>
                  </g>
                </g>
              </g>
            </g>
            <path id="Path_2204" data-name="Path 2204" d="M256,250v17.571A8.785,8.785,0,1,0,256,250Z" transform="translate(-243.554 -250)" fill="#ffc58f"/>
          </g>
        </g>
      </g>
    </g>
    <g id="Group_262" data-name="Group 262" transform="translate(1)">
      <g id="Group_261" data-name="Group 261" transform="translate(0)">
        <g id="Group_260" data-name="Group 260">
          <g id="Group_237" data-name="Group 237">
            <g id="Group_236" data-name="Group 236">
              <g id="Group_235" data-name="Group 235">
                <g id="Group_234" data-name="Group 234">
                  <g id="Group_233" data-name="Group 233">
                    <g id="Group_232" data-name="Group 232">
                      <g id="Group_231" data-name="Group 231">
                        <g id="Group_228" data-name="Group 228" transform="translate(0 14.642)">
                          <path id="Path_2205" data-name="Path 2205" d="M17.838,100H9.053A8.053,8.053,0,0,0,1,108.053v7.321a2.2,2.2,0,0,0,2.2,2.2h22.7v-9.517A8.053,8.053,0,0,0,17.838,100Z" transform="translate(-1 -100)" fill="#ffef4a"/>
                          <path id="Path_2206" data-name="Path 2206" d="M98.446,108.053A8.053,8.053,0,0,0,90.393,100H86v17.571H98.446Z" transform="translate(-73.554 -100)" fill="#ffcb00"/>
                        </g>
                        <g id="Group_230" data-name="Group 230" transform="translate(3.661)">
                          <g id="Group_229" data-name="Group 229">
                            <path id="Path_2207" data-name="Path 2207" d="M34.785,17.571a8.785,8.785,0,1,1,8.785-8.785A8.8,8.8,0,0,1,34.785,17.571Z" transform="translate(-26 0)" fill="#ffd7aa"/>
                          </g>
                        </g>
                      </g>
                    </g>
                  </g>
                </g>
              </g>
            </g>
          </g>
          <path id="Path_2208" data-name="Path 2208" d="M86,0V17.571A8.785,8.785,0,1,0,86,0Z" transform="translate(-73.554 0)" fill="#ffc58f"/>
          <g id="Group_248" data-name="Group 248" transform="translate(24.892)">
            <g id="Group_247" data-name="Group 247">
              <g id="Group_246" data-name="Group 246">
                <g id="Group_245" data-name="Group 245">
                  <g id="Group_244" data-name="Group 244">
                    <g id="Group_243" data-name="Group 243">
                      <g id="Group_242" data-name="Group 242">
                        <g id="Group_241" data-name="Group 241">
                          <g id="Group_238" data-name="Group 238" transform="translate(0 14.642)">
                            <path id="Path_2209" data-name="Path 2209" d="M187.838,100h-8.785A8.053,8.053,0,0,0,171,108.053v9.517h24.892v-9.517A8.053,8.053,0,0,0,187.838,100Z" transform="translate(-171 -100)" fill="#ff8493"/>
                            <path id="Path_2210" data-name="Path 2210" d="M268.446,108.053A8.053,8.053,0,0,0,260.393,100H256v17.571h12.446Z" transform="translate(-243.554 -100)" fill="#ff1f3d"/>
                          </g>
                          <g id="Group_240" data-name="Group 240" transform="translate(3.661)">
                            <g id="Group_239" data-name="Group 239">
                              <path id="Path_2211" data-name="Path 2211" d="M204.785,17.571a8.785,8.785,0,1,1,8.785-8.785A8.8,8.8,0,0,1,204.785,17.571Z" transform="translate(-196 0)" fill="#ffd7aa"/>
                            </g>
                          </g>
                        </g>
                      </g>
                    </g>
                  </g>
                </g>
              </g>
            </g>
            <path id="Path_2212" data-name="Path 2212" d="M256,0V17.571A8.785,8.785,0,1,0,256,0Z" transform="translate(-243.554 0)" fill="#ffc58f"/>
          </g>
          <g id="Group_259" data-name="Group 259" transform="translate(49.783)">
            <g id="Group_258" data-name="Group 258">
              <g id="Group_257" data-name="Group 257">
                <g id="Group_256" data-name="Group 256">
                  <g id="Group_255" data-name="Group 255">
                    <g id="Group_254" data-name="Group 254">
                      <g id="Group_253" data-name="Group 253">
                        <g id="Group_252" data-name="Group 252">
                          <g id="Group_249" data-name="Group 249" transform="translate(0 14.642)">
                            <path id="Path_2213" data-name="Path 2213" d="M357.838,100h-8.785A8.053,8.053,0,0,0,341,108.053v9.517h22.7a2.2,2.2,0,0,0,2.2-2.2v-7.321A8.053,8.053,0,0,0,357.838,100Z" transform="translate(-341 -100)" fill="#bceaf9"/>
                            <path id="Path_2214" data-name="Path 2214" d="M438.446,108.053A8.053,8.053,0,0,0,430.393,100H426v17.571h10.25a2.2,2.2,0,0,0,2.2-2.2Z" transform="translate(-413.554 -100)" fill="#7dd5f4"/>
                          </g>
                          <g id="Group_251" data-name="Group 251" transform="translate(3.661)">
                            <g id="Group_250" data-name="Group 250">
                              <path id="Path_2215" data-name="Path 2215" d="M374.785,17.571a8.785,8.785,0,1,1,8.785-8.785A8.8,8.8,0,0,1,374.785,17.571Z" transform="translate(-366 0)" fill="#ffd7aa"/>
                            </g>
                          </g>
                        </g>
                      </g>
                    </g>
                  </g>
                </g>
              </g>
            </g>
            <path id="Path_2216" data-name="Path 2216" d="M426,0V17.571A8.785,8.785,0,1,0,426,0Z" transform="translate(-413.554 0)" fill="#ffc58f"/>
          </g>
        </g>
      </g>
    </g>
    <g id="Group_263" data-name="Group 263" transform="translate(47.855 47.148)">
      <path id="Path_2217" data-name="Path 2217" d="M334.91,349.82a13.91,13.91,0,1,1,13.91-13.91A13.926,13.926,0,0,1,334.91,349.82Z" transform="translate(-321 -322)" fill="#ff8493"/>
    </g>
    <path id="Path_2218" data-name="Path 2218" d="M416,322v27.82A13.91,13.91,0,1,0,416,322Z" transform="translate(-354.235 -274.852)" fill="#ff1f3d"/>
    <path id="Path_2219" data-name="Path 2219" d="M381.982,376.393h-2.2v-2.2a2.2,2.2,0,1,0-4.393,0v2.2h-2.2a2.2,2.2,0,1,0,0,4.393h2.2v2.2a2.2,2.2,0,1,0,4.393,0v-2.2h2.2a2.2,2.2,0,1,0,0-4.393Z" transform="translate(-315.824 -317.531)" fill="#005edf"/>
    <path id="Path_2220" data-name="Path 2220" d="M418.2,382.982v-2.2h2.2a2.2,2.2,0,0,0,0-4.393h-2.2v-2.2A2.2,2.2,0,0,0,416,372v13.178A2.2,2.2,0,0,0,418.2,382.982Z" transform="translate(-354.235 -317.531)" fill="#3630a2"/>
  </g>
</svg>
