<svg xmlns="http://www.w3.org/2000/svg" width="110" height="110" viewBox="0 0 110 110">
  <g id="Personal" transform="translate(-0.5 1)">
    <circle id="Ellipse_114" data-name="Ellipse 114" cx="55" cy="55" r="55" transform="translate(0.5 -1)" fill="#f9ab3e"/>
    <g id="Group_1167" data-name="Group 1167">
      <g id="company" transform="translate(33.5 33)" opacity="0">
        <g id="Group_1163" data-name="Group 1163" transform="translate(28.618 14.362)">
          <g id="Group_1162" data-name="Group 1162">
            <path id="Path_2872" data-name="Path 2872" d="M345.35,193.422h-1.383V171.375a1.261,1.261,0,0,0-.882-1.219L331,166.11v29.906h14.35a1.3,1.3,0,1,0,0-2.594Zm-3.977,0h-2.594v-5.188h-2.594v5.188h-2.594v-6.484a1.284,1.284,0,0,1,1.3-1.3h5.188a1.284,1.284,0,0,1,1.3,1.3v6.484Zm-1.3-10.375h-5.187a1.3,1.3,0,1,1,0-2.594h5.188a1.3,1.3,0,1,1,0,2.594Zm0-5.188h-5.187a1.3,1.3,0,1,1,0-2.594h5.188a1.3,1.3,0,1,1,0,2.594Z" transform="translate(-330.998 -166.11)"/>
          </g>
        </g>
        <g id="Group_1165" data-name="Group 1165">
          <g id="Group_1164" data-name="Group 1164">
            <path id="Path_2873" data-name="Path 2873" d="M25.2,7.86,4.452.079A1.311,1.311,0,0,0,2.688,1.3V41.674H1.3a1.3,1.3,0,1,0,0,2.594H26.032V9.079A1.3,1.3,0,0,0,25.2,7.86ZM13.063,41.674H7.876V35.19a1.284,1.284,0,0,1,1.3-1.3h3.891v7.781ZM11.766,31.3H9.173a1.3,1.3,0,0,1,0-2.594h2.594a1.3,1.3,0,1,1,0,2.594Zm0-5.188H9.173a1.3,1.3,0,0,1,0-2.594h2.594a1.3,1.3,0,0,1,0,2.594Zm0-5.188H9.173a1.3,1.3,0,0,1,0-2.594h2.594a1.3,1.3,0,1,1,0,2.594Zm0-5.188H9.173a1.3,1.3,0,0,1,0-2.594h2.594a1.3,1.3,0,1,1,0,2.594Zm9.078,25.938H15.657V33.893h3.891a1.284,1.284,0,0,1,1.3,1.3v6.484ZM19.548,31.3H16.954a1.3,1.3,0,1,1,0-2.594h2.594a1.3,1.3,0,1,1,0,2.594Zm0-5.188H16.954a1.3,1.3,0,1,1,0-2.594h2.594a1.3,1.3,0,1,1,0,2.594Zm0-5.188H16.954a1.3,1.3,0,1,1,0-2.594h2.594a1.3,1.3,0,1,1,0,2.594Zm0-5.188H16.954a1.3,1.3,0,1,1,0-2.594h2.594a1.3,1.3,0,1,1,0,2.594Z" transform="translate(-0.008)"/>
          </g>
        </g>
      </g>
      <g id="businessman" transform="translate(-1.258 33)">
        <g id="Group_1166" data-name="Group 1166" transform="translate(37.758)">
          <path id="Path_2874" data-name="Path 2874" d="M135.746,18.769A9.361,9.361,0,0,0,141.5,25.9a6.308,6.308,0,0,0,4.225-.009,9.536,9.536,0,0,0,5.774-7.122c.44-.037,1.017-.651,1.641-2.86.852-3.016-.055-3.465-.825-3.391a8,8,0,0,0,.33-1.237C153.949,3.463,150.1,3.2,150.1,3.2a5.937,5.937,0,0,0-2.319-2.154A7.832,7.832,0,0,0,143.023.035a7.1,7.1,0,0,0-1.9.357h0a8.337,8.337,0,0,0-2.09,1.072,10.955,10.955,0,0,0-2.145,1.778,8.7,8.7,0,0,0-2.319,4.07,8.836,8.836,0,0,0,.018,3.978h0a7.727,7.727,0,0,0,.33,1.237c-.77-.073-1.677.376-.825,3.391C134.728,18.119,135.306,18.733,135.746,18.769Z" transform="translate(-124.953)"/>
          <path id="Path_2875" data-name="Path 2875" d="M71.547,278.342a29.072,29.072,0,0,1-8.488-3.868l-2.97,9.4-.559,1.769-.009-.027-.486,1.5-1.567-4.445c3.85-5.371-.779-5.316-1.036-5.307-.257-.009-4.885-.064-1.036,5.307l-1.567,4.445-.486-1.5-.009.027-.559-1.769L49.8,274.474a29.072,29.072,0,0,1-8.488,3.868c-3.492.889-3.657,4.922-3.52,6.911,0,0,.2,2.7.4,3.9,0,0,6.819,4.427,18.24,4.436s18.24-4.436,18.24-4.436c.2-1.192.4-3.9.4-3.9C75.2,283.264,75.04,279.231,71.547,278.342Z" transform="translate(-37.758 -249.316)"/>
        </g>
      </g>
    </g>
  </g>
</svg>
