<svg xmlns="http://www.w3.org/2000/svg" width="110" height="110" viewBox="0 0 110 110">
  <g id="Running_A_Business_Compliance" data-name="Running A Business / Compliance" transform="translate(-0.5 -0.5)">
    <circle id="Ellipse_122" data-name="Ellipse 122" cx="55" cy="55" r="55" transform="translate(0.5 0.5)" fill="#f9ab3e"/>
    <g id="compliant" transform="translate(33.5 33.423)">
      <path id="Path_87420" data-name="Path 87420" d="M23.823,94.051a11.634,11.634,0,0,1,.2-2.146H6.882a1.3,1.3,0,1,1,0-2.6H24.839a11.656,11.656,0,0,1,2-3.047,1.3,1.3,0,0,1-.423.072H6.882a1.3,1.3,0,0,1,0-2.6h19.53a1.307,1.307,0,0,1,1.231,1.725A11.593,11.593,0,0,1,33.3,82.632V68.282A4.092,4.092,0,0,0,29.2,64.19H25.555a5.733,5.733,0,0,1-5.716,5.395H13.456A5.733,5.733,0,0,1,7.74,64.19H4.092A4.092,4.092,0,0,0,0,68.282v30.69a4.092,4.092,0,0,0,4.092,4.092H28.119A11.6,11.6,0,0,1,23.823,94.051ZM6.882,72.56h19.53a1.3,1.3,0,1,1,0,2.6H6.882a1.3,1.3,0,0,1,0-2.6Zm0,5.58h19.53a1.3,1.3,0,1,1,0,2.6H6.882a1.3,1.3,0,0,1,0-2.6Zm6.975,19.345H6.882a1.3,1.3,0,0,1,0-2.6h6.975a1.3,1.3,0,1,1,0,2.6Z" transform="translate(0 -58.547)"/>
      <path id="Path_87421" data-name="Path 87421" d="M122.357,8.433h6.384a3.125,3.125,0,1,0-.233-6.242,3.128,3.128,0,0,0-5.918,0A3.125,3.125,0,1,0,122.357,8.433Z" transform="translate(-108.901 0)"/>
      <path id="Path_87422" data-name="Path 87422" d="M313.384,304.294a9.024,9.024,0,0,0-9.014,9.014c.453,11.942,17.576,11.938,18.028,0A9.024,9.024,0,0,0,313.384,304.294Zm3.625,8.132-3.605,3.605a1.3,1.3,0,0,1-1.842,0l-1.8-1.8a1.3,1.3,0,0,1,1.841-1.842l.882.882,2.685-2.685A1.3,1.3,0,0,1,317.009,312.426Z" transform="translate(-277.943 -277.803)"/>
    </g>
  </g>
</svg>
