<svg id="Group_28" data-name="Group 28" xmlns="http://www.w3.org/2000/svg" width="110" height="110" viewBox="0 0 110 110">
  <circle id="Ellipse_1" data-name="Ellipse 1" cx="55" cy="55" r="55" fill="#f9ab3e"/>
  <g id="Group_130" data-name="Group 130" transform="translate(-4796 -1015)">
    <g id="Rectangle_27" data-name="Rectangle 27" transform="translate(4829 1048)" fill="#fff" stroke="#707070" stroke-width="1" opacity="0">
      <rect width="44" height="44" stroke="none"/>
      <rect x="0.5" y="0.5" width="43" height="43" fill="none"/>
    </g>
    <g id="contract" transform="translate(4829 1048)">
      <g id="Group_118" data-name="Group 118" transform="translate(25.282)">
        <g id="Group_117" data-name="Group 117">
          <path id="Path_2148" data-name="Path 2148" d="M306.851,7.387A3.779,3.779,0,0,0,305.737,4.7l-3.584-3.584A3.887,3.887,0,0,0,299.44,0h-.218V7.6h7.629V7.387Z" transform="translate(-299.222)"/>
        </g>
      </g>
      <g id="Group_120" data-name="Group 120">
        <g id="Group_119" data-name="Group 119">
          <path id="Path_2149" data-name="Path 2149" d="M23.146,26.154a5.087,5.087,0,0,1,1.218-1.978l8.581-8.547v-5.49H24.039a1.232,1.232,0,0,1-1.226-1.267V0H3.8A3.806,3.806,0,0,0,0,3.8V39.458a3.806,3.806,0,0,0,3.8,3.8H29.109a3.835,3.835,0,0,0,3.836-3.8V30l-1.393,1.359a5.04,5.04,0,0,1-1.97,1.215l-4.03,1.345-.614.033a3.169,3.169,0,0,1-3-4.175ZM6.337,22.813H18.97a1.267,1.267,0,0,1,0,2.535H6.337a1.267,1.267,0,0,1,0-2.535Zm-1.267-3.8a1.267,1.267,0,0,1,1.267-1.267H18.97a1.267,1.267,0,1,1,0,2.535H6.337A1.267,1.267,0,0,1,5.07,19.011Zm0,10.139a1.267,1.267,0,0,1,1.267-1.267H18.97a1.267,1.267,0,1,1,0,2.535H6.337A1.267,1.267,0,0,1,5.07,29.15Zm18.97,6.337a1.267,1.267,0,1,1,0,2.535h-7.6a1.267,1.267,0,0,1,0-2.535ZM6.337,15.209a1.267,1.267,0,1,1,0-2.535h17.7a1.267,1.267,0,1,1,0,2.535Z"/>
        </g>
      </g>
      <g id="Group_122" data-name="Group 122" transform="translate(24.305 27.275)">
        <g id="Group_121" data-name="Group 121">
          <path id="Path_2150" data-name="Path 2150" d="M288.8,322.808l-1.1,3.308a.634.634,0,0,0,.8.8l3.306-1.1Z" transform="translate(-287.663 -322.808)"/>
        </g>
      </g>
      <g id="Group_124" data-name="Group 124" transform="translate(26.938 16.84)">
        <g id="Group_123" data-name="Group 123">
          <path id="Path_2151" data-name="Path 2151" d="M327.167,199.307l-8.347,8.347,3.6,3.6,8.347-8.347Z" transform="translate(-318.82 -199.307)"/>
        </g>
      </g>
      <g id="Group_126" data-name="Group 126" transform="translate(37.077 12.501)">
        <g id="Group_125" data-name="Group 125">
          <path id="Path_2152" data-name="Path 2152" d="M444.257,148.653a2.647,2.647,0,0,0-3.6,0l-1.842,1.842,3.6,3.6,1.842-1.842A2.551,2.551,0,0,0,444.257,148.653Z" transform="translate(-438.819 -147.949)"/>
        </g>
      </g>
      <g id="Group_129" data-name="Group 129" transform="translate(42.518 16.78)">
        <g id="Group_128" data-name="Group 128">
          <g id="Group_127" data-name="Group 127">
            <path id="Path_2153" data-name="Path 2153" d="M503.215,198.815h0l.007-.007Z" transform="translate(-503.215 -198.791)"/>
            <path id="Path_2154" data-name="Path 2154" d="M503.3,198.686l.011-.011Z" transform="translate(-503.296 -198.669)"/>
            <path id="Path_2155" data-name="Path 2155" d="M503.436,198.608Z" transform="translate(-503.417 -198.602)"/>
          </g>
        </g>
      </g>
    </g>
  </g>
</svg>
