<svg id="Plan" xmlns="http://www.w3.org/2000/svg" width="110" height="110" viewBox="0 0 110 110">
  <circle id="Ellipse_1" data-name="Ellipse 1" cx="55" cy="55" r="55" fill="#f9ab3e"/>
  <g id="Group_102" data-name="Group 102" transform="translate(-2359 -1326)" opacity="0">
    <g id="Rectangle_20" data-name="Rectangle 20" transform="translate(2392 1359)" fill="#fff" stroke="#707070" stroke-width="1" opacity="0">
      <rect width="44" height="44" stroke="none"/>
      <rect x="0.5" y="0.5" width="43" height="43" fill="none"/>
    </g>
    <g id="Glyph" transform="translate(2392 1359)">
      <g id="Glyph-2" data-name="Glyph" transform="translate(0)">
        <rect id="Rectangle_21" data-name="Rectangle 21" width="44" height="6" rx="2.5" transform="translate(0 38)"/>
        <path id="Path_2109" data-name="Path 2109" d="M15.458,3.667H31.042a.458.458,0,0,0,.458-.458V2.292A2.292,2.292,0,0,0,29.208,0H17.292A2.292,2.292,0,0,0,15,2.292v.917A.458.458,0,0,0,15.458,3.667Z" transform="translate(-1.25)"/>
        <path id="Path_2110" data-name="Path 2110" d="M41.583,37.06v2.773H42.5V37.06a5.042,5.042,0,1,0-.917,0Z" transform="translate(-3.083 -2.25)"/>
        <path id="Path_2111" data-name="Path 2111" d="M4.583,37.06v2.773H5.5V37.06a5.042,5.042,0,1,0-.917,0Z" transform="translate(0 -2.25)"/>
        <path id="Path_2112" data-name="Path 2112" d="M12.458,38h7.333V33.875a1.833,1.833,0,0,1,1.833-1.833h2.75a1.833,1.833,0,0,1,1.833,1.833V38h7.333A.458.458,0,0,0,34,37.542V7.292A2.292,2.292,0,0,0,31.708,5H14.292A2.292,2.292,0,0,0,12,7.292v30.25A.458.458,0,0,0,12.458,38ZM25.292,10.958a.917.917,0,0,1,.917-.917h2.75a.917.917,0,0,1,.917.917v2.75a.917.917,0,0,1-.917.917h-2.75a.917.917,0,0,1-.917-.917Zm0,7.333a.917.917,0,0,1,.917-.917h2.75a.917.917,0,0,1,.917.917v2.75a.917.917,0,0,1-.917.917h-2.75a.917.917,0,0,1-.917-.917Zm0,7.333a.917.917,0,0,1,.917-.917h2.75a.917.917,0,0,1,.917.917v2.75a.917.917,0,0,1-.917.917h-2.75a.917.917,0,0,1-.917-.917ZM16.125,10.958a.917.917,0,0,1,.917-.917h2.75a.917.917,0,0,1,.917.917v2.75a.917.917,0,0,1-.917.917h-2.75a.917.917,0,0,1-.917-.917Zm0,7.333a.917.917,0,0,1,.917-.917h2.75a.917.917,0,0,1,.917.917v2.75a.917.917,0,0,1-.917.917h-2.75a.917.917,0,0,1-.917-.917Zm0,7.333a.917.917,0,0,1,.917-.917h2.75a.917.917,0,0,1,.917.917v2.75a.917.917,0,0,1-.917.917h-2.75a.917.917,0,0,1-.917-.917Z" transform="translate(-1 -0.417)"/>
      </g>
    </g>
  </g>
  <g id="Group_131" data-name="Group 131" transform="translate(-4220 -1308)">
    <g id="Rectangle_28" data-name="Rectangle 28" transform="translate(4253 1341)" fill="#fff" stroke="#707070" stroke-width="1" opacity="0">
      <rect width="44" height="44" stroke="none"/>
      <rect x="0.5" y="0.5" width="43" height="43" fill="none"/>
    </g>
    <g id="airplane" transform="translate(4252.9 1341)">
      <path id="Path_2156" data-name="Path 2156" d="M24.789,22.753h-.044a.367.367,0,0,1-.278.094l-6.481,6.07L17.8,37.56l-1.978,1.979a.53.53,0,0,1-.369.09.591.591,0,0,1-.527-.229,1.907,1.907,0,0,1-.251-.5l-1.2-4.781a.426.426,0,0,0-.23-.323.735.735,0,0,0-.321-.091.884.884,0,0,0-.736.346,7.042,7.042,0,0,1-.507.571,2.916,2.916,0,0,1-1.933.644c-.7,0-1.057-.335-1.057-1.011a3.291,3.291,0,0,1,.162-1.011,2.466,2.466,0,0,1,.483-.873l.782-.873a.143.143,0,0,1,.044-.094.128.128,0,0,0,.049-.094.4.4,0,0,0,.137-.276.464.464,0,0,0-.186-.344.956.956,0,0,0-.365-.207l-4.918-1.2a.744.744,0,0,1-.507-.781v-.046a1.8,1.8,0,0,1,.046-.23l1.885-1.884c.061-.031.147-.073.252-.138a.587.587,0,0,1,.209-.093h8a.815.815,0,0,0,.208-.067.391.391,0,0,0,.207-.163l5.931-6.345a.449.449,0,0,0,.093-.323.665.665,0,0,0-.368-.644L.378,11.9a.282.282,0,0,1-.253-.255A3.092,3.092,0,0,1,.1,11.3v-.224a.309.309,0,0,1,.093-.23L1.8,9.287A.482.482,0,0,1,2.009,9.1a.569.569,0,0,1,.253-.092h28.6l6.986-7.4A4.74,4.74,0,0,1,39.71.416,6.271,6.271,0,0,1,41.9,0a2.718,2.718,0,0,1,1.263.3,1.7,1.7,0,0,1,.807,1.124V2.16a7.777,7.777,0,0,1-.277,1.933,3.162,3.162,0,0,1-.965,1.654l-7.538,7.22a.391.391,0,0,0-.162.3c-.015.137-.024.238-.024.3v27.31c0,.061-.018.229-.046.5s-.044.446-.044.507a.42.42,0,0,1-.07.206.38.38,0,0,1-.161.163l-1.471,1.518A.984.984,0,0,1,32.7,44a.653.653,0,0,1-.641-.505L25.439,23.357a.818.818,0,0,0-.229-.413A.6.6,0,0,0,24.789,22.753Z" transform="translate(0 0)"/>
    </g>
  </g>
</svg>
