<svg xmlns="http://www.w3.org/2000/svg" width="52.436" height="52.436" viewBox="0 0 52.436 52.436">
  <g id="Group_81" data-name="Group 81" transform="translate(-1563.496 -41)">
    <g id="Ellipse_9" data-name="Ellipse 9" transform="translate(1569 48)" fill="#181313" stroke="#707070" stroke-width="1">
      <circle cx="20" cy="20" r="20" stroke="none"/>
      <circle cx="20" cy="20" r="19.5" fill="none"/>
    </g>
    <g id="twitter" transform="translate(1563.496 41)">
      <g id="Group_430" data-name="Group 430">
        <path id="Path_745" data-name="Path 745" d="M26.218,0A26.218,26.218,0,1,0,52.436,26.218,26.218,26.218,0,0,0,26.218,0Zm11.7,20.218c.012.259.018.521.018.783A17.165,17.165,0,0,1,11.511,35.457a12.185,12.185,0,0,0,8.934-2.5,6.043,6.043,0,0,1-5.634-4.19,6.058,6.058,0,0,0,2.725-.1,6.036,6.036,0,0,1-4.844-5.916v-.076a6.01,6.01,0,0,0,2.732.754,6.043,6.043,0,0,1-1.867-8.057A17.135,17.135,0,0,0,26,21.683a6.043,6.043,0,0,1,10.282-5.5,12.046,12.046,0,0,0,3.833-1.465,6.062,6.062,0,0,1-2.657,3.339,12,12,0,0,0,3.466-.948A12.138,12.138,0,0,1,37.916,20.218Z" fill="#f4a739"/>
      </g>
    </g>
  </g>
</svg>
