<svg xmlns="http://www.w3.org/2000/svg" width="369.836" height="73.215" viewBox="0 0 369.836 73.215">
  <path id="logo" d="M37.146,18.9q0,14.452-6.7,22.13t-19.4,7.678A27.6,27.6,0,0,1,.564,46.751v-15.2A15.056,15.056,0,0,0,9.9,34.707q11.09,0,11.09-16.459V-24.507H37.146Zm75.975,28.553H95.457L90.338,31.445H64.746L59.678,47.453H42.114l26.195-71.96H87.528ZM86.625,19,78.9-5.187a31.519,31.519,0,0,1-1.2-6.473h-.4a27.448,27.448,0,0,1-1.255,6.273L68.208,19Zm89.724-43.507-24.79,71.96H133.193L108.7-24.507h17.463l15,50.081a35.867,35.867,0,0,1,1.455,7.176h.3a40.56,40.56,0,0,1,1.556-7.377l14.9-49.88Zm66.591,71.96H225.276l-5.118-16.008H194.565L189.5,47.453H171.933l26.195-71.96h19.219ZM216.444,19,208.716-5.187a31.519,31.519,0,0,1-1.2-6.473h-.4a27.448,27.448,0,0,1-1.255,6.273L198.027,19Zm35.478,28.453v-71.96h26.195q12.044,0,18.517,4.416a14.2,14.2,0,0,1,6.473,12.445,14.729,14.729,0,0,1-3.939,10.187,20.7,20.7,0,0,1-10.061,6.072v.2a19.941,19.941,0,0,1,12.269,5.67,15.858,15.858,0,0,1,4.592,11.492q0,9.886-7.076,15.682t-19.32,5.8Zm16.209-60.017V4.5h7.126q5.018,0,7.9-2.434a8.3,8.3,0,0,0,2.885-6.7q0-7.929-11.843-7.929Zm0,29.105V35.51h8.782q5.62,0,8.807-2.609a8.717,8.717,0,0,0,3.187-7.126A8.134,8.134,0,0,0,285.77,19q-3.136-2.459-8.757-2.459Zm65.888,6.122v24.79H317.81v-71.96H343.2q27.2,0,27.2,22.933,0,10.839-7.8,17.538t-20.85,6.7Zm0-34.725V10.369h6.373q12.947,0,12.947-11.341,0-11.09-12.947-11.09Z" transform="translate(-0.564 24.507)" fill="#fff"/>
</svg>
