<svg id="Company" xmlns="http://www.w3.org/2000/svg" width="110" height="110" viewBox="0 0 110 110">
  <circle id="Ellipse_1" data-name="Ellipse 1" cx="55" cy="55" r="55" fill="#f9ab3e"/>
  <g id="company-2" data-name="company" transform="translate(33 33)">
    <g id="Group_25" data-name="Group 25" transform="translate(28.618 14.362)">
      <g id="Group_24" data-name="Group 24">
        <path id="Path_2" data-name="Path 2" d="M345.35,193.422h-1.383V171.375a1.261,1.261,0,0,0-.882-1.219L331,166.11v29.906H345.35a1.3,1.3,0,1,0,0-2.594Zm-3.977,0h-2.594v-5.188h-2.594v5.188h-2.594v-6.484a1.284,1.284,0,0,1,1.3-1.3h5.188a1.284,1.284,0,0,1,1.3,1.3v6.484Zm-1.3-10.375h-5.187a1.3,1.3,0,1,1,0-2.594h5.188a1.3,1.3,0,1,1,0,2.594Zm0-5.188h-5.187a1.3,1.3,0,1,1,0-2.594h5.188a1.3,1.3,0,1,1,0,2.594Z" transform="translate(-330.998 -166.11)"/>
      </g>
    </g>
    <g id="Group_27" data-name="Group 27" transform="translate(0 0)">
      <g id="Group_26" data-name="Group 26">
        <path id="Path_3" data-name="Path 3" d="M25.2,7.86,4.452.079A1.311,1.311,0,0,0,2.688,1.3V41.674H1.3a1.3,1.3,0,1,0,0,2.594H26.032V9.079A1.3,1.3,0,0,0,25.2,7.86ZM13.063,41.674H7.876V35.19a1.284,1.284,0,0,1,1.3-1.3h3.891v7.781ZM11.766,31.3H9.173a1.3,1.3,0,0,1,0-2.594h2.594a1.3,1.3,0,1,1,0,2.594Zm0-5.188H9.173a1.3,1.3,0,0,1,0-2.594h2.594a1.3,1.3,0,0,1,0,2.594Zm0-5.188H9.173a1.3,1.3,0,0,1,0-2.594h2.594a1.3,1.3,0,1,1,0,2.594Zm0-5.188H9.173a1.3,1.3,0,0,1,0-2.594h2.594a1.3,1.3,0,1,1,0,2.594Zm9.078,25.938H15.657V33.893h3.891a1.284,1.284,0,0,1,1.3,1.3v6.484ZM19.548,31.3H16.954a1.3,1.3,0,1,1,0-2.594h2.594a1.3,1.3,0,1,1,0,2.594Zm0-5.188H16.954a1.3,1.3,0,1,1,0-2.594h2.594a1.3,1.3,0,1,1,0,2.594Zm0-5.188H16.954a1.3,1.3,0,1,1,0-2.594h2.594a1.3,1.3,0,1,1,0,2.594Zm0-5.188H16.954a1.3,1.3,0,1,1,0-2.594h2.594a1.3,1.3,0,1,1,0,2.594Z" transform="translate(-0.008 0)"/>
      </g>
    </g>
  </g>
</svg>
