<svg id="Group_28" data-name="Group 28" xmlns="http://www.w3.org/2000/svg" width="110" height="110" viewBox="0 0 110 110">
  <g id="Group_104" data-name="Group 104">
    <circle id="Ellipse_1" data-name="Ellipse 1" cx="55" cy="55" r="55" fill="#f9ab3e"/>
    <g id="passport" transform="translate(32.605 32)">
      <path id="Path_2113" data-name="Path 2113" d="M100.773,256.031c.054.313.111.627.181.936l.451,2.026a5.97,5.97,0,0,0,2,0l.45-2.026c.069-.31.127-.623.181-.936-.543.039-1.087.066-1.631.066s-1.089-.027-1.631-.066Zm0,0" transform="translate(-90.102 -229.82)"/>
      <path id="Path_2114" data-name="Path 2114" d="M144.6,249.676c-.076.5-.164.99-.27,1.479l-.246,1.117a6.578,6.578,0,0,0,3.112-3.112l-1.117.246C145.592,249.515,145.1,249.6,144.6,249.676Zm0,0" transform="translate(-128.98 -223.652)"/>
      <path id="Path_2115" data-name="Path 2115" d="M144.059,164.023l.246,1.117c.109.491.194.983.27,1.479.5.075.99.164,1.479.269l1.117.246a6.579,6.579,0,0,0-3.112-3.11Zm0,0" transform="translate(-128.956 -147.231)"/>
      <path id="Path_2116" data-name="Path 2116" d="M150.941,205.863a22.428,22.428,0,0,1,0,3.262c.314-.055.626-.112.937-.181l2.025-.451a5.912,5.912,0,0,0,0-2l-2.025-.45C151.567,205.975,151.254,205.917,150.941,205.863Zm0,0" transform="translate(-135.134 -184.788)"/>
      <path id="Path_2117" data-name="Path 2117" d="M24.146,109.793H.4v33.579a.819.819,0,0,0,.819.819H24.146a.819.819,0,0,0,.819-.819v-32.76A.819.819,0,0,0,24.146,109.793Zm-6.93,31.122H7.388v-1.638h9.828Zm1.638-3.276H5.75V136h13.1ZM8.207,134.363v-1.638H9.845v1.638Zm3.276,0v-1.638h1.638v1.638Zm3.276,0v-1.638H16.4v1.638ZM12.3,129.449a8.19,8.19,0,1,1,8.19-8.19A8.19,8.19,0,0,1,12.3,129.449Zm0,0" transform="translate(0 -98.553)"/>
      <path id="Path_2118" data-name="Path 2118" d="M58.934,167.165l1.117-.246c.491-.108.983-.194,1.479-.269q.112-.744.268-1.479l.246-1.117a6.583,6.583,0,0,0-3.11,3.111Zm0,0" transform="translate(-52.546 -147.259)"/>
      <path id="Path_2119" data-name="Path 2119" d="M68.694,59.408a.819.819,0,0,0-1.029-.792L54.094,62.192h14.6Zm0,0" transform="translate(-48.202 -52.59)"/>
      <path id="Path_2120" data-name="Path 2120" d="M104.036,160.839c-.054-.314-.112-.626-.181-.937l-.45-2.026a5.949,5.949,0,0,0-2,0l-.451,2.026c-.07.311-.127.623-.181.937a22.428,22.428,0,0,1,3.262,0Zm0,0" transform="translate(-90.102 -141.638)"/>
      <path id="Path_2121" data-name="Path 2121" d="M61.53,249.69q-.744-.112-1.479-.269l-1.117-.246a6.582,6.582,0,0,0,3.112,3.112l-.246-1.117c-.11-.491-.2-.985-.27-1.481Zm0,0" transform="translate(-52.546 -223.666)"/>
      <path id="Path_2122" data-name="Path 2122" d="M55.755,209.125a22.3,22.3,0,0,1,0-3.261c-.314.054-.627.112-.937.18l-2.026.45a5.974,5.974,0,0,0,0,2l2.026.451C55.128,209.014,55.441,209.071,55.755,209.125Zm0,0" transform="translate(-46.957 -184.788)"/>
      <path id="Path_2123" data-name="Path 2123" d="M97.955,203.047a20.755,20.755,0,0,0,0,3.69,20.752,20.752,0,0,0,3.69,0,20.679,20.679,0,0,0,0-3.69A20.681,20.681,0,0,0,97.955,203.047Zm0,0" transform="translate(-87.499 -182.186)"/>
      <path id="Path_2124" data-name="Path 2124" d="M256.395,149.05l.971-.121a.819.819,0,0,1,.691.246l1.624,1.682.264-.748-.853-1.784a.82.82,0,0,1-.034-.625l3.976-11.264-.5-1.045-1.045.5L260,140.112l-.85,2.4-1.638,4.632a.819.819,0,0,1-.419.466l-.7.338Zm0,0" transform="translate(-229.792 -121.53)"/>
      <path id="Path_2125" data-name="Path 2125" d="M248.415,0l-1.884,5.323-.3.852-1.34,3.8a2.45,2.45,0,0,1,1.178,2.089v5.094l2.7-.943.959-2.718a.82.82,0,0,1,.419-.466l2.09-1a.819.819,0,0,1,1.093.386l1,2.089a.821.821,0,0,1,.034.627l-.96,2.718,2.564,4.118a.82.82,0,0,1,.077.705l-.819,2.317a.819.819,0,0,1-.565.519.8.8,0,0,1-.207.027.82.82,0,0,1-.54-.2l-2.406-2.111-1.119,3.172.853,1.784a.821.821,0,0,1,.034.626l-.819,2.317a.819.819,0,0,1-.6.527.79.79,0,0,1-.174.019.819.819,0,0,1-.589-.246l-2.26-2.341-.767.094V35.65l6.342,2.239L263.86,5.456Zm.627,7.169-1.4-.491.545-1.544,1.4.5Zm2.809.992-1.4-.5.545-1.544,1.4.5Zm2.808.991-1.4-.5.545-1.544,1.4.491Zm2.808.992-1.406-.5.545-1.544,1.4.5Zm1.4.5.545-1.545,1.4.5-.545,1.545Zm0,0" transform="translate(-219.465)"/>
      <path id="Path_2126" data-name="Path 2126" d="M256.395,213.117l.806-2.284-.806.034Zm0,0" transform="translate(-229.792 -189.249)"/>
      <path id="Path_2127" data-name="Path 2127" d="M317.266,197.125l.284-.805-1.663-2.671-.611,1.731Zm0,0" transform="translate(-282.646 -173.823)"/>
      <path id="Path_2128" data-name="Path 2128" d="M258.4,177.664l-2.005.7v1.09l1.393-.057Zm0,0" transform="translate(-229.791 -159.476)"/>
    </g>
  </g>
</svg>
